<?xml version="1.0" encoding="UTF-8"?>
<svg version="1.1" width="115px" height="36px" viewBox="0 0 115.0 36.0" xmlns="http://www.w3.org/2000/svg" xmlns:xlink="http://www.w3.org/1999/xlink">
  <defs>
    <clipPath id="i0">
      <path d="M115,0 L115,36 L0,36 L0,0 L115,0 Z"/>
    </clipPath>
    <clipPath id="i1">
      <path d="M22.4261193,0 C23.4919704,0 24.50313,0.0525229521 25.432888,0.156287809 C26.3639179,0.261333713 27.2517032,0.435556188 28.072078,0.673831044 C28.888637,0.881360757 29.667039,1.16191018 30.3805742,1.50523094 C30.6133317,1.63461675 30.8206512,1.7460679 31.0190674,1.8511138 C31.2085803,1.95359761 31.38919,2.04967618 31.5634401,2.14831685 L31.59015,2.16497046 C31.7122523,2.10988542 31.8419859,2.05351932 31.9742634,1.99715323 C32.1039971,1.94078713 32.2299151,1.88826418 32.3571049,1.83574123 L32.432147,1.80499609 C35.4745288,0.553412569 37.4434282,0.345882855 37.5248297,0.336915522 C37.5731618,0.333072379 37.621494,0.348444951 37.6571071,0.381752188 C37.6939922,0.413778379 37.7143426,0.46117714 37.7143426,0.50985695 L37.7143426,0.714824568 C37.7143426,0.787844282 37.6685542,0.85317771 37.5998717,0.877517614 L34.1174128,2.12269589 C33.5654088,2.36481389 33.0579212,2.60821294 32.6051252,2.84648779 C33.2308994,3.3550637 33.8159728,4.03273788 34.518061,5.05501388 L34.5256924,5.06654331 C34.668145,5.31634759 34.7788002,5.53796883 34.8640174,5.74677959 C35.0242767,6.11059711 35.146379,6.50387873 35.2265086,6.91381396 C35.3079101,7.32503025 35.3486109,7.74777596 35.3486109,8.16795958 C35.3486109,9.10568643 35.1769045,9.98064195 34.8398514,10.7684862 C34.5040701,11.5550495 33.9762321,12.3057434 33.2728721,13.0000712 C32.5707839,13.6636538 31.7109804,14.2554978 30.7138117,14.7640737 C29.7942289,15.2329372 28.7321934,15.6287809 27.5544151,15.9451996 C27.8507676,16.2552132 28.1229539,16.5588214 28.3684304,16.8509003 C28.6711423,17.2121557 28.9064435,17.5657249 29.0705185,17.9026404 C29.265119,18.240837 29.4050279,18.5995303 29.4864294,18.968472 C29.566559,19.3361327 29.6085317,19.7371006 29.6085317,20.1611273 C29.6085317,20.7350367 29.5347615,21.3179133 29.391037,21.8905416 C29.2473124,22.467013 29.0107392,23.0217066 28.687677,23.5392499 C28.3709742,24.0772899 27.9601509,24.6242972 27.4691979,25.1636182 C26.978245,25.7016582 26.3944435,26.2461035 25.7330561,26.7803003 C25.1975867,27.255569 24.5858034,27.6885631 23.9206003,28.062629 C23.2604849,28.4341328 22.5558529,28.7595189 21.8270549,29.0285389 C21.0957131,29.2988399 20.3732746,29.4961213 19.6788179,29.6139777 C18.9792736,29.7343961 18.3051672,29.7946054 17.6743054,29.7946054 C17.1006791,29.7946054 16.5830163,29.7497687 16.1353079,29.6575333 C15.6799681,29.5652978 15.2831357,29.4256637 14.9549858,29.2386307 C14.6077575,29.0106042 14.3584653,28.7428653 14.2032937,28.4328518 C14.0506658,28.1292435 13.97308,27.766707 13.97308,27.3554907 C13.97308,26.6124831 14.2211002,25.883567 14.7107813,25.1905202 C15.191559,24.5090029 15.9038223,23.8595118 16.8284927,23.2574194 C17.7747854,22.6309871 18.8584432,22.1236923 20.0451248,21.7496264 C21.2267187,21.3781226 22.5596686,21.1142267 24.0083614,20.9656252 C24.0948505,20.9566579 24.1749801,21.0155861 24.1940586,21.1014163 L24.3352393,21.767561 C24.3454145,21.8149598 24.3352393,21.8636396 24.3072576,21.9033521 C24.2805477,21.9430646 24.2373031,21.9686855 24.1902429,21.9750907 C22.9539573,22.1505943 21.7850823,22.4247385 20.7166873,22.789837 C19.652108,23.1549356 18.6752898,23.6199559 17.8142143,24.1708063 C16.9569545,24.7203758 16.3146456,25.2673831 15.9050942,25.7964558 C15.5069899,26.3114369 15.3060299,26.8212939 15.3060299,27.3119351 C15.3060299,27.4938439 15.3403712,27.6642232 15.4090537,27.8179489 C15.4751924,27.9691125 15.5922071,28.1113088 15.757554,28.2406946 C15.8911033,28.3418974 16.0755287,28.4226034 16.3019267,28.4764074 C16.5372279,28.5314924 16.8081424,28.5596755 17.1095824,28.5596755 C17.5954477,28.5596755 18.1207419,28.493061 18.6702022,28.3636752 C19.2196624,28.2342894 19.7932888,28.0216355 20.3732746,27.7333998 C20.9863299,27.4157 21.5726752,27.0544445 22.1132322,26.6598819 C22.6550611,26.2653192 23.1790833,25.829763 23.6725801,25.3634617 C24.2881791,24.7818661 24.8198328,24.1989894 25.2535503,23.6302043 C25.6847239,23.0627002 26.0599341,22.493915 26.3690055,21.9405025 C26.6742612,21.3922141 26.8993873,20.8669846 27.0354804,20.3801865 C27.1715736,19.8946694 27.2402561,19.4168387 27.2402561,18.9620668 C27.2402561,18.646929 27.217362,18.351007 27.1728455,18.079425 C27.1308729,17.8283396 27.0380242,17.6067184 26.8993873,17.4235286 C26.8942997,17.4158423 26.8892121,17.408156 26.8853964,17.4004697 C26.7671098,17.1788485 26.6182976,16.9751619 26.4427756,16.7958152 C26.2825164,16.6318412 26.0942753,16.4832396 25.8818683,16.3500107 C25.2281123,16.519109 22.9832109,16.7163903 22.1997213,16.0745854 C21.9962175,15.9067682 21.9008251,15.6889901 21.9237193,15.443029 C21.9262631,15.2918653 21.9682357,15.1560743 22.0509091,15.04078 C22.0610843,15.0254074 22.0725314,15.013878 22.0814347,15.0061917 C22.3498053,14.6013807 22.9501416,14.3887268 23.7717882,14.4079425 C24.4802358,14.4245961 25.3006105,14.6141912 25.9785326,14.9177994 C26.9388161,14.77176 27.8444081,14.4668707 28.6711423,14.0120988 C29.5131393,13.5496406 30.3131636,12.9039926 31.049593,12.0930895 C31.752953,11.2847484 32.2896943,10.4635969 32.6420103,9.65269376 C32.9917824,8.84947691 33.1685764,8.0206391 33.1685764,7.1918013 C33.1685764,6.87794463 33.1456822,6.58842787 33.0998938,6.3334994 C33.0579212,6.08753825 32.9765196,5.85054445 32.859505,5.62892321 C32.8569612,5.62379902 32.8531455,5.61867483 32.8518736,5.61226959 C32.7641125,5.39321045 32.6381946,5.17543235 32.4753915,4.96662159 C32.4117966,4.8833535 32.3367546,4.79496121 32.2388184,4.68607217 C31.9564568,4.33250302 31.6359383,4.00711693 31.2772629,3.70991389 C28.1127787,5.78777311 25.5918753,8.71881005 23.1523735,11.5550495 C22.5596686,12.2455341 21.9987613,12.8975874 21.4289506,13.5368301 C16.7648978,18.7737528 9.23398514,29.4064479 6.13691161,35.7988755 C6.06568528,35.946196 5.89397894,36 5.61924881,36 C5.37377234,36 5.04816625,35.9564444 4.63988675,35.8987972 C4.25958901,35.8462743 3.69105026,35.7668493 3.55750088,35.8232154 C3.50916873,35.892392 3.41886392,35.9154509 3.34127809,35.8783005 C3.25606087,35.837307 3.22044771,35.7335421 3.26242037,35.6464309 C6.37221288,29.2283823 13.9285635,18.5585368 18.6078791,13.3049605 C22.2086246,9.26325528 25.8030105,5.42779873 30.1465449,2.93103694 C29.906156,2.7901217 29.6644952,2.66586008 29.4126593,2.55312789 C28.7639909,2.26104904 28.059359,2.01124475 27.3203858,1.80755818 C26.6081225,1.60259056 25.8259047,1.4475838 24.992811,1.34509999 C24.1546297,1.24261618 23.2744758,1.19137428 22.379059,1.19137428 C20.9545324,1.19137428 19.5071116,1.31051171 18.0774973,1.54366237 C16.6516988,1.77937513 15.2208127,2.14959789 13.8268116,2.64664437 C12.4302668,3.11550779 11.0858698,3.7022276 9.82923376,4.39015017 C8.57259777,5.07935378 7.36810963,5.85951178 6.2513825,6.7075653 C5.516225,7.31606291 4.83194346,7.95402462 4.22651964,8.59839157 C3.62491152,9.24019643 3.10088922,9.91787061 2.67098744,10.6134795 C2.23981375,11.2834674 1.90530437,11.9432069 1.67509069,12.5798876 C1.44869271,13.210163 1.33294992,13.8173795 1.33294992,14.3861647 C1.33294992,14.8627144 1.42198283,15.3021137 1.60004866,15.6915522 C1.7755707,16.0784286 2.04394134,16.4307167 2.3962573,16.7381681 C2.78673022,17.0199986 3.2280791,17.2416198 3.70631304,17.3966266 C4.18836268,17.5541954 4.74036675,17.6336204 5.34833437,17.6336204 C6.69654707,17.6336204 8.11344231,17.3018291 9.55831932,16.6484948 C11.0108277,15.9925984 12.4989493,14.9933813 13.9845271,13.6790264 C15.5044461,12.3621095 16.7992391,10.8863426 17.8358366,9.29528147 C18.8724341,7.70165824 19.6813617,5.96071454 20.2384534,4.12113017 C20.2588038,4.05067255 20.3211268,4.00199274 20.393625,3.9981496 L21.1936494,3.95331293 C21.2470691,3.95075084 21.2979451,3.97252865 21.3335582,4.01352217 C21.3678995,4.05451569 21.3818904,4.10831969 21.3717152,4.16084264 C20.9621638,6.18489787 20.2499005,8.08597253 19.2578194,9.81026261 C18.2657384,11.5345527 16.9645859,13.1320191 15.3899752,14.5603872 C13.8140926,15.9874742 12.175887,17.0738026 10.5198748,17.7886271 C8.86004689,18.5047328 7.15061494,18.8685503 5.44245488,18.8685503 C4.5801075,18.8685503 3.81188064,18.7686286 3.15812467,18.5726283 C2.49419351,18.3740659 1.92692665,18.0704576 1.47031499,17.6707708 C0.983177756,17.2416198 0.613055211,16.7432923 0.367578747,16.1898797 C0.12464608,15.6364672 0,14.985695 0,14.2529357 C0,13.4958366 0.14626836,12.7195217 0.434989382,11.9496121 C0.719894709,11.1848267 1.15488409,10.386734 1.72596664,9.578393 C2.26016413,8.7469931 2.92536719,7.94505729 3.69995355,7.19948758 C4.47326801,6.45519892 5.35978145,5.74549854 6.33405592,5.09216426 C7.52328128,4.23642445 8.77482968,3.48316846 10.0480004,2.86057932 C11.3186272,2.23799018 12.6477615,1.71276066 14.0010618,1.29642018 C15.3861595,0.88007971 16.7865201,0.557255711 18.1639865,0.335634474 C19.5465404,0.11273219 20.9799704,0 22.4261193,0 Z M113.556395,1.65383247 C113.799328,1.65383247 114.006647,1.68713971 114.16945,1.75247313 C114.325894,1.81524447 114.465803,1.89466942 114.589177,1.98818589 C114.730357,2.12782008 114.830837,2.26873532 114.902064,2.42117999 C114.966931,2.57234361 115,2.76193865 115,2.98355989 C115,3.70478969 114.613343,4.59511779 113.815862,5.70450502 C113.050179,6.77417977 111.868585,8.07059996 110.307965,9.55661519 C108.768968,11.0221337 106.933618,12.6016654 104.848976,14.2542168 C102.733808,15.9336702 100.337551,17.6963917 97.7250708,19.4949826 L97.7136237,19.5026688 C97.7021766,19.5103551 97.6920014,19.5206035 97.6856419,19.5308519 C96.7825938,20.8144616 95.9685786,21.954594 95.2677623,22.9166607 C94.5516833,23.9017863 93.965338,24.752402 93.5214453,25.4492919 C93.0813683,26.1474628 92.7481309,26.7200911 92.5306362,27.1543662 C92.2597217,27.7039357 92.219021,27.9434916 92.219021,28.0344459 C92.219021,28.1036225 92.2304681,28.1394919 92.2419151,28.1612697 C92.2508184,28.1792043 92.2788002,28.2227599 92.3284043,28.2727208 C92.33222,28.2752829 92.3347638,28.279126 92.3360357,28.2829692 L92.356386,28.3149954 C92.3703769,28.3342111 92.3894554,28.3495837 92.4123496,28.3572699 C92.4619536,28.3764857 92.5115577,28.385453 92.5662493,28.385453 C92.8397076,28.385453 93.2034706,28.2714398 93.6473633,28.0498185 C94.1128783,27.8128247 94.6674261,27.470785 95.297016,27.0288236 C95.8948084,26.5650843 96.5752743,25.9975802 97.320607,25.344246 C98.0761148,24.6819443 98.9168399,23.9120347 99.8186162,23.057576 L99.9140086,22.9666216 C99.9254557,22.9563732 99.9394466,22.951249 99.9534374,22.951249 C99.9687002,22.951249 99.983963,22.9563732 99.9941382,22.9679026 L100.683507,23.6596684 C100.706402,23.6827272 100.706402,23.7173155 100.684779,23.7403744 L100.595746,23.837734 C99.7003296,24.8241406 98.8596045,25.6773183 98.1015528,26.3703651 C97.3256946,27.0813465 96.5803619,27.6808768 95.8897208,28.1510213 C95.183817,28.6070742 94.5313329,28.9555192 93.9513471,29.1822646 C93.3586423,29.4141342 92.821901,29.5332717 92.356386,29.5332717 C92.0524022,29.5332717 91.7891192,29.4858729 91.5728964,29.3910754 C91.3592174,29.2988399 91.1722483,29.1732973 91.0158047,29.0195716 L91.0094452,29.0118853 C90.8555455,28.8889047 90.7258118,28.6980286 90.6342351,28.4635969 C90.5401146,28.2304462 90.4930543,27.9729557 90.4930543,27.6975304 C90.4930543,27.4592556 90.5286675,27.1876735 90.5935343,26.8917515 C90.6049814,26.8430717 90.584631,26.7931108 90.5413865,26.7687709 C90.5248518,26.7559604 90.5019576,26.7508362 90.4816072,26.7508362 C90.4548974,26.7508362 90.4294594,26.7598036 90.4078371,26.7777382 C89.7439059,27.3490855 89.1066847,27.8397267 88.5152517,28.2381325 C87.8424173,28.6903423 87.2255464,29.0298199 86.6824456,29.246317 C86.136801,29.4640951 85.6636547,29.5742652 85.2782693,29.5742652 C85.0302491,29.5742652 84.7936759,29.5255854 84.5749093,29.4333499 C84.3637741,29.3411145 84.176805,29.2027614 84.0190895,29.0208526 L84.0076425,29.0106042 C83.8511989,28.8748132 83.7303685,28.6890613 83.6527827,28.4520675 C83.5777407,28.224041 83.5383118,27.956302 83.5383118,27.6552559 C83.5383118,27.3939221 83.5599341,27.1313074 83.6019067,26.8750979 C83.6095381,26.826418 83.5891878,26.7790193 83.5459432,26.7559604 C83.5294085,26.744431 83.5077862,26.7393068 83.4887078,26.7393068 C83.4619979,26.7393068 83.4365599,26.7482741 83.4162095,26.7674899 C82.8018824,27.2670984 82.2079057,27.7193082 81.6469983,28.1087467 C80.9423664,28.5635186 80.2987856,28.9170878 79.7327907,29.1604868 C79.150261,29.4064479 78.647861,29.5332717 78.2383096,29.5332717 C77.9623076,29.5332717 77.7168311,29.4845918 77.5095116,29.3872322 C77.3060078,29.2949968 77.1241263,29.1515195 76.9664108,28.9632055 C76.8341333,28.8286955 76.7272938,28.6314141 76.6344452,28.3470216 C76.5454123,28.0767205 76.499624,27.7731122 76.499624,27.445164 C76.499624,27.2786279 76.5072554,27.1441179 76.5225181,27.0198562 C76.536509,26.8840652 76.5632189,26.7098427 76.5861131,26.5727706 C76.6191824,26.4664437 76.6484361,26.3690841 76.6738741,26.2691623 C76.6865931,26.2204825 76.6662427,26.1692406 76.62427,26.1423386 C76.6051916,26.1295281 76.5835693,26.124404 76.561947,26.124404 C76.536509,26.124404 76.5097992,26.1333713 76.4894488,26.151306 C76.0506437,26.527934 75.61947,26.8866273 75.2073748,27.2196997 C74.5879601,27.7205893 73.9570983,28.1638318 73.3300522,28.5378977 C72.7246284,28.8184471 72.1522739,29.0567219 71.6282516,29.246317 C71.1105888,29.435912 70.6336268,29.5319906 70.2088126,29.5319906 C69.915004,29.5319906 69.6555366,29.4845918 69.4418576,29.3910754 C69.2243629,29.2975589 69.0335781,29.1566437 68.8784065,28.9708918 C68.8745908,28.9657676 68.8682313,28.9606434 68.8631437,28.9568002 C68.7168753,28.8389438 68.5985887,28.6493488 68.5184591,28.413636 C68.4434171,28.1817664 68.4052601,27.9127464 68.4052601,27.6129813 C68.4052601,27.25685 68.4485047,26.8815031 68.5362657,26.4984699 C68.557888,26.3959861 68.5858698,26.2909401 68.6163953,26.1833321 C68.6303862,26.1359334 68.6125796,26.0846915 68.5731508,26.0552274 C68.5528004,26.0411359 68.5299062,26.0347306 68.5057401,26.0347306 C68.4841179,26.0347306 68.4599518,26.0411359 68.4396014,26.0565084 C68.2348257,26.2038289 68.0491285,26.3332147 67.8723345,26.4510711 C66.8980601,27.1120917 65.9504955,27.6885631 65.0652539,28.1625507 C64.1049704,28.6186037 63.2210007,28.9708918 62.4400549,29.2091666 C61.6451181,29.4500036 60.9214077,29.5729841 60.2930897,29.5729841 C59.8860821,29.5729841 59.523591,29.5204612 59.2132477,29.4179774 C58.8978168,29.3103694 58.6154552,29.1489574 58.3737945,28.9375845 C58.1308618,28.7249306 57.940077,28.4700021 57.8039838,28.1792043 C57.6678906,27.8896876 57.5992081,27.5438047 57.5992081,27.1505231 C57.5992081,26.9903921 57.6055676,26.826418 57.6195585,26.662444 C57.6246461,26.6150452 57.5992081,26.5702085 57.5559635,26.5484307 C57.5407008,26.5407444 57.5228942,26.5369013 57.5050876,26.5369013 C57.4771058,26.5369013 57.4503959,26.5471497 57.4287737,26.5663654 C56.7546673,27.1799872 56.0869205,27.714184 55.4471554,28.1510213 C54.7412515,28.6070742 54.0811361,28.9555192 53.4858875,29.1822646 C52.8804636,29.4141342 52.3373629,29.5332717 51.8718479,29.5332717 C51.6238276,29.5332717 51.393614,29.4845918 51.1862945,29.3885133 C50.9891502,29.2975589 50.8110843,29.1604868 50.6571846,28.978578 L50.6444656,28.9657676 C50.4905658,28.8363818 50.3722792,28.6583161 50.2921496,28.4379759 C50.2158357,28.2189168 50.1776787,27.9844851 50.1776787,27.739805 C50.1776787,27.3926411 50.2272828,26.9967974 50.3277628,26.5612412 C50.3773668,26.3447441 50.4473213,26.1128745 50.5338104,25.8745997 C50.551617,25.8272009 50.5350823,25.7733969 50.4943815,25.7426518 C50.4740311,25.7272792 50.4498651,25.7195929 50.425699,25.7195929 C50.4015329,25.7195929 50.3773668,25.7272792 50.3570165,25.7426518 C50.0212352,25.9924561 49.6854539,26.2307309 49.3598478,26.4510711 C48.3792139,27.1146538 47.4316493,27.6911252 46.5514953,28.1625507 C45.5899398,28.6186037 44.7059702,28.9708918 43.9250243,29.2091666 C43.1300876,29.4500036 42.4076491,29.5729841 41.7793311,29.5729841 C41.3723235,29.5729841 41.0085604,29.5204612 40.699489,29.4179774 C40.3866019,29.3116504 40.1042404,29.1502384 39.8600358,28.9375845 C39.6183751,28.7262117 39.4263184,28.4712832 39.2902252,28.1792043 C39.1528601,27.8896876 39.0841776,27.5438047 39.0841776,27.1505231 C39.0841776,26.5164045 39.192289,25.8669134 39.4072399,25.2199843 C39.619647,24.5768984 39.9427093,23.9043484 40.3649796,23.2253932 C40.7834343,22.5771831 41.2934658,21.9059142 41.881083,21.22824 C41.906521,21.1987759 41.9154243,21.1577824 41.9039772,21.120632 C41.893802,21.0822006 41.8632764,21.0527365 41.8263913,21.041207 C41.6317908,20.9848409 41.4460936,20.906697 41.2769311,20.8106185 C41.2731154,20.8080564 41.2692997,20.8067753 41.265484,20.8042132 C41.0607083,20.7158209 40.8788268,20.5864351 40.7414617,20.4314284 C40.6765949,20.3584087 40.6168156,20.2802647 40.5646678,20.1969967 C40.5468612,20.1713757 40.5201513,20.15216 40.4883538,20.1483168 C40.4819943,20.1457548 40.4743629,20.1444737 40.4680035,20.1444737 C40.4438374,20.1444737 40.4196713,20.153441 40.3993209,20.1675326 L30.6654796,27.4092947 C30.6578482,27.4157 30.6502168,27.4233862 30.6438573,27.4310725 L29.4597195,28.9632055 C29.4482724,28.977297 29.4317377,28.9862643 29.4139312,28.9862643 L26.8561427,28.9862643 C26.8345204,28.9862643 26.8141701,28.9734538 26.8039949,28.9542381 C26.7950916,28.9337414 26.7963635,28.9094015 26.8103544,28.8940289 L36.4958636,16.38588 C36.5060388,16.3730695 36.5238453,16.3641022 36.54038,16.3641022 L39.0167669,16.3641022 C39.0383892,16.3641022 39.0587396,16.3769127 39.0676429,16.3961284 C39.0778181,16.4166252 39.0752743,16.439684 39.0612834,16.4576187 L33.5603212,23.5610277 C33.524708,23.6071454 33.5285237,23.6724788 33.5692245,23.7134724 C33.5921187,23.7365312 33.6213723,23.7480606 33.650626,23.7480606 C33.6747921,23.7480606 33.70023,23.7403744 33.7205804,23.7262828 L40.5748429,18.4560529 C40.58629,18.4470856 40.5951933,18.4368372 40.6028247,18.4253078 C40.7567245,18.1755035 40.9093523,17.9397908 41.0556207,17.7245748 C41.8823549,16.547292 42.5818992,16.2039712 44.1768603,16.196285 L44.5887965,16.1961248 L44.8558837,16.1957808 C44.8662888,16.1958704 44.8746618,16.1959563 44.8812215,16.196031 L44.9234649,16.196285 C44.9438153,16.2193438 44.9730689,16.2359974 45.0061383,16.2372785 C45.0061383,16.2833962 44.959078,16.4050957 44.7021545,16.6613052 C44.3129535,17.0340901 43.9822598,17.3684435 43.7202486,17.6579603 C43.4188086,17.9884706 43.1695165,18.2818305 42.9787316,18.5290727 C42.7879468,18.7763149 42.6404066,18.9992171 42.5399266,19.1926553 C42.4419904,19.3771262 42.3923863,19.5244467 42.3923863,19.6282115 C42.3923863,19.6525514 42.3949301,19.6756103 42.3987458,19.694826 C42.4051053,19.7191659 42.4178243,19.7409437 42.4356309,19.7575973 C42.4597969,19.7780941 42.5068572,19.8126824 42.5882587,19.856238 C42.597162,19.8613622 42.6060653,19.8652053 42.6162405,19.8664864 C42.7268957,19.8933884 42.8668045,19.9177283 43.0041696,19.9395061 C43.0232481,19.9420682 43.0474142,19.9446303 43.074124,19.9471924 C43.0779397,19.9471924 43.0817554,19.9484734 43.0855711,19.9484734 C43.1148248,19.9484734 43.1428066,19.936944 43.163157,19.9177283 C43.4595094,19.642303 43.7304238,19.4027471 43.9949788,19.183688 C44.6029464,18.6802363 45.2350801,18.216497 45.8710295,17.8027187 C46.4993475,17.3940645 47.1467439,17.0430574 47.7979561,16.7573838 C48.4682468,16.4486513 49.1080119,16.2129386 49.7019886,16.0553697 C50.3010529,15.8978009 50.865776,15.8183759 51.3783512,15.8183759 C51.7001416,15.8183759 51.9774155,15.8491211 52.2012697,15.9093303 C52.4391148,15.9733827 52.6171806,16.0528076 52.7443705,16.1488862 C52.9109892,16.2821152 53.0356353,16.4332788 53.1170368,16.5985339 C53.1997102,16.7663511 53.2416829,16.9802861 53.2416829,17.2326525 C53.2416829,17.7822219 52.988575,18.3625365 52.4874469,18.9556615 C51.9977659,19.533414 51.2537051,20.153441 50.2781587,20.797808 C49.2975248,21.4191161 48.1757101,21.9853391 46.944512,22.4785425 C45.7323925,22.9653405 44.343479,23.4111451 42.8159286,23.8044267 C42.7892187,23.810832 42.7663245,23.8274856 42.7497899,23.8505444 C42.4979539,24.2182051 42.2524774,24.5666501 42.0006415,24.913814 C41.7449898,25.2661021 41.516048,25.614547 41.3227194,25.9463383 C41.1344784,26.2730055 41.000929,26.557398 40.9233432,26.7918298 C40.8470293,27.0211373 40.8088723,27.227386 40.8088723,27.4028895 C40.8088723,27.5412426 40.8317665,27.6667853 40.8750111,27.7654259 C40.9157118,27.8563803 40.9856663,27.9294 41.0874182,27.9908903 L41.0950495,27.9960145 L41.1217594,28.0177923 C41.2120642,28.1087467 41.3252632,28.1663939 41.4702597,28.1997011 C41.6317908,28.2394136 41.8213038,28.2586293 42.0324389,28.2586293 C42.5691802,28.2586293 43.1962263,28.1484592 43.8944988,27.9306811 C44.6105778,27.7090599 45.4144178,27.3734254 46.2843966,26.934026 C47.1047713,26.4664437 47.9798376,25.9194363 48.893061,25.3070956 C49.7935653,24.7024411 50.7589365,23.9978649 51.7611927,23.2151448 L51.8794793,23.1216284 C51.8858388,23.1165042 51.8921983,23.1139421 51.8998297,23.11138 C51.9278114,23.1036937 51.9519775,23.085759 51.9672403,23.0614191 C52.1694722,22.7373141 52.3945983,22.4055227 52.6349872,22.0750125 L57.7823615,15.0061917 C57.8077995,14.9728845 57.8116152,14.9242047 57.7925367,14.8857733 C57.7721863,14.8460608 57.7327575,14.8217209 57.6895129,14.8217209 L55.0694014,14.8217209 C55.0490511,14.8217209 55.0287007,14.8114725 55.0185255,14.7909757 C55.0083503,14.77176 55.0108941,14.7487012 55.0236131,14.7307665 L55.8439878,13.5726995 C55.8554349,13.5573269 55.8732415,13.5483595 55.891048,13.5483595 L58.8113276,13.5483595 C58.8469408,13.5483595 58.8812821,13.5317059 58.9029044,13.5022418 L61.772308,9.62066757 C61.7837551,9.605295 61.8002898,9.59760871 61.8180964,9.59760871 L64.6671496,9.59760871 C64.6875,9.59760871 64.7078504,9.60913814 64.7180256,9.6296349 C64.7269289,9.64885062 64.7243851,9.67190947 64.7116661,9.68984414 L61.9592771,13.3638887 C61.9312953,13.398477 61.9262078,13.4445947 61.9465581,13.4843072 C61.9669085,13.5240196 62.0050655,13.5483595 62.0495819,13.5483595 L65.7838767,13.5483595 C65.8042271,13.5483595 65.8245775,13.56117 65.8347527,13.5803857 C65.843656,13.5996015 65.8423841,13.6226603 65.830937,13.640595 L65.0080185,14.797381 C64.9978433,14.8127535 64.9800367,14.8217209 64.9622301,14.8217209 L61.0002654,14.8217209 C60.9646523,14.8217209 60.930311,14.8396555 60.9086887,14.8691196 L52.6642408,26.0347306 C52.6591532,26.0411359 52.6553376,26.0475411 52.6527938,26.0552274 C52.6044616,26.1589922 52.5434105,26.2704434 52.5014378,26.3447441 C52.4416586,26.4497901 52.3704322,26.557398 52.2890307,26.6662871 C52.2839431,26.6726923 52.2801274,26.6790976 52.2775836,26.6867839 C52.2317953,26.7815814 52.1771036,26.8840652 52.122412,26.9788627 C52.0728079,27.067255 52.0371947,27.1453989 52.0155725,27.2132944 C52.0143006,27.2171376 52.0130287,27.2196997 52.0104849,27.2235428 C51.8947421,27.4349157 51.8247876,27.5899224 51.7879026,27.7116219 C51.7433861,27.8615045 51.7332109,27.9460537 51.7332109,27.9921714 C51.7332109,28.0395701 51.7408423,28.0818447 51.7535613,28.1113088 C51.7675522,28.1382108 51.7917183,28.1804854 51.8438661,28.2330083 C51.8794793,28.2675966 51.9239958,28.2932176 51.9723279,28.3085901 C52.0371947,28.331649 52.1274996,28.3418974 52.2483299,28.3418974 C52.4200363,28.3418974 52.7367391,28.2868123 53.2709366,28.0254786 C53.7186449,27.8064195 54.2630176,27.472066 54.8938794,27.0313857 C55.4942156,26.5919863 56.1466997,26.0539463 56.8347969,25.4300762 L57.2570673,25.0457619 L57.3041276,25.0034873 C57.6666187,24.672977 58.0520041,24.323251 58.4590117,23.9555903 C58.4704588,23.945342 58.4768183,23.9350936 58.4831778,23.9222831 C58.6167271,23.6660736 58.7464608,23.4367661 58.8800102,23.2241122 C59.3035525,22.5694968 59.8148558,21.8956658 60.3999292,21.2218347 C60.9900902,20.5441606 61.6998098,19.8588001 62.5087374,19.183688 C63.116705,18.6815173 63.7475668,18.216497 64.3835162,17.8027187 C65.014378,17.3940645 65.6617745,17.0430574 66.3129866,16.7573838 C66.9794616,16.4499324 67.6192267,16.2129386 68.2157472,16.0553697 C68.8148115,15.8978009 69.3808065,15.8183759 69.8933817,15.8183759 C70.216444,15.8183759 70.4937179,15.8491211 70.7150283,15.9093303 C70.9528734,15.9733827 71.133483,16.0528076 71.2581291,16.1488862 C71.4234759,16.2808341 71.548122,16.4319977 71.6307954,16.5972529 C71.7160127,16.7650701 71.7567134,16.9790051 71.7567134,17.2326525 C71.7567134,17.7809409 71.5036056,18.3612554 71.0012055,18.9556615 C70.5140683,19.5308519 69.7700075,20.1508789 68.7919174,20.797808 C67.8087396,21.4203971 66.6881968,21.9853391 65.4608145,22.4785425 C64.2486949,22.9640595 62.8610534,23.4098641 61.332231,23.8031457 C61.3042492,23.810832 61.2813551,23.8274856 61.2648204,23.8505444 C61.0231596,24.2015515 60.7853145,24.5397481 60.515672,24.913814 C60.2625641,25.2622589 60.0348943,25.6094228 59.83775,25.9463383 C59.6495089,26.2717244 59.5146877,26.556117 59.4383737,26.7918298 C59.3607879,27.0185752 59.322631,27.2248239 59.322631,27.4028895 C59.322631,27.5450858 59.3442532,27.6667853 59.3887697,27.7628639 C59.4294704,27.8550993 59.4994249,27.9294 59.6024487,27.9908903 C59.6049925,27.9947335 59.6075363,27.9960145 59.6100801,27.9972956 L59.6393337,28.0216355 C59.7270948,28.1087467 59.8415657,28.1663939 59.9840183,28.1997011 C60.1468214,28.2394136 60.3363343,28.2586293 60.5461976,28.2586293 C61.0829389,28.2586293 61.709985,28.1484592 62.4095293,27.9306811 C63.1332397,27.7064978 63.9358078,27.3708633 64.8045147,26.931464 C65.6210737,26.4651626 66.4961401,25.9194363 67.4068196,25.3070956 C68.2462728,24.7434346 69.1315143,24.1003487 70.0383782,23.3970536 C70.0485534,23.3893673 70.0561847,23.3804 70.0638161,23.3701516 C70.2558729,23.0896022 70.4517453,22.8282685 70.6628805,22.5682158 L75.3282052,16.3871611 C75.3396523,16.3730695 75.356187,16.3641022 75.3752654,16.3641022 L78.1391015,16.3641022 C78.1607238,16.3641022 78.182346,16.3769127 78.1912493,16.3961284 C78.2001526,16.4166252 78.1988807,16.439684 78.1861617,16.4576187 L70.7671762,26.1641164 C70.7633605,26.1692406 70.7595448,26.1769269 70.7557291,26.1833321 C70.6590648,26.3818945 70.5471377,26.5804569 70.4288511,26.7559604 C70.3156521,26.9289019 70.2215316,27.0890328 70.1464896,27.2427585 C70.0676318,27.3772685 70.0103964,27.497687 69.9709675,27.6142623 C69.9366263,27.7205893 69.9200916,27.8192299 69.9200916,27.9089033 C69.9200916,27.9601452 69.9340825,28.0165113 69.9607923,28.0703153 C69.9811427,28.1138709 70.0053088,28.1548644 70.0307468,28.1868906 C70.0421939,28.2022632 70.0574566,28.2137926 70.0765351,28.2214789 L70.115964,28.2406946 L70.1452177,28.2535051 L70.2431539,28.2983418 C70.316924,28.3278059 70.3932379,28.3418974 70.4759113,28.3418974 C71.0813352,28.3418974 71.8482901,28.0690342 72.7564259,27.5284321 C73.6836401,26.9788627 74.7685697,26.152587 75.9806893,25.0713828 C77.2487723,23.9594335 78.5143116,22.6783859 79.7391502,21.2641093 C80.9627168,19.8511138 82.1862834,18.2459611 83.3767807,16.492207 L83.4174814,16.4319977 C83.4302004,16.4179062 83.4454632,16.4076578 83.4632698,16.4076578 L86.2779818,16.3602591 C86.300876,16.3602591 86.3199544,16.3717885 86.3301296,16.3910042 C86.3403048,16.4102199 86.3390329,16.4345598 86.3237701,16.4524945 L78.6834742,26.4702868 L78.5931694,26.5650843 C78.5880818,26.5689275 78.5842661,26.5740517 78.5804504,26.5804569 C78.3489648,26.9237777 78.1721709,27.2158565 78.0564281,27.4490072 C77.9216068,27.7218703 77.8910812,27.8691908 77.8898093,27.9447726 C77.8898093,27.9665504 77.8961688,27.9883282 77.906344,28.0062629 C77.9101597,28.0139492 77.9177911,28.0254786 77.9254225,28.0421322 C77.9584919,28.0933741 77.9902893,28.1369298 78.0246306,28.171518 C78.0297182,28.1792043 78.0386215,28.1868906 78.0475248,28.1920148 C78.1212949,28.2355704 78.1861617,28.2727208 78.2421253,28.3009039 C78.2968169,28.3278059 78.3527805,28.3418974 78.4036564,28.3418974 C78.6504048,28.3418974 78.9810985,28.2432567 79.3855623,28.0459754 C79.7989294,27.8448509 80.3140484,27.5181838 80.9169284,27.0787844 C81.5439745,26.6457903 82.229528,26.1179987 82.9557822,25.5095011 C83.598091,24.967618 84.302723,24.3399046 85.0467838,23.6442958 C85.0544151,23.6378905 85.0607746,23.6314853 85.0671341,23.622518 C85.3787493,23.1344388 85.7488719,22.600242 86.162239,22.0353 L90.3785834,16.3871611 C90.3887586,16.3730695 90.4065652,16.3641022 90.4256437,16.3641022 L93.0203172,16.3641022 C93.0406676,16.3641022 93.061018,16.3769127 93.0711932,16.3961284 C93.0800964,16.4153441 93.0775526,16.439684 93.0661056,16.4563376 L86.3988122,25.4095794 C86.3962684,25.4134225 86.3937246,25.4172657 86.3911808,25.4223899 C86.1825894,25.7926126 85.973998,26.1269661 85.7883007,26.3831756 C85.608963,26.6342609 85.4690541,26.8648495 85.369846,27.067255 C85.257919,27.2658174 85.1854207,27.4221052 85.1498076,27.5425237 C85.1141944,27.6616611 85.0963878,27.7846417 85.0963878,27.9089033 C85.0963878,27.9691125 85.1052911,28.0216355 85.1230977,28.0613479 C85.1332729,28.0933741 85.1485357,28.1202761 85.168886,28.1471781 C85.1803331,28.1612697 85.1917802,28.171518 85.2057711,28.1792043 C85.2515595,28.2048253 85.3011635,28.2330083 85.3520395,28.2637535 C85.3914683,28.2880934 85.4487038,28.3009039 85.5275615,28.3009039 C85.7717661,28.3009039 86.1189944,28.197139 86.5298177,28.0037008 C86.9571757,27.8025763 87.4799261,27.4759092 88.0853499,27.0352288 C88.6691515,26.6137641 89.3254512,26.0936588 90.0338989,25.4890043 C90.5935343,25.0124546 91.2358432,24.4385453 91.941747,23.7826489 C91.9506503,23.7749626 91.9595536,23.7659953 91.9646412,23.7557469 C92.3703769,23.0498897 92.8702331,22.2594833 93.450219,21.4050246 C94.3876084,19.9612839 95.5628429,18.3394776 96.9415811,16.5857234 C98.3025128,14.852466 99.9140086,12.9334567 101.726464,10.8799374 C102.923321,9.47975233 104.106187,8.21151519 105.241993,7.10981425 C106.380342,6.00427016 107.509788,5.01658245 108.597262,4.17493417 C109.658025,3.35890684 110.614493,2.72991246 111.442499,2.30716675 C112.28704,1.87417266 112.999303,1.65383247 113.556395,1.65383247 Z M51.2956778,17.0071881 C50.9357304,17.0071881 50.4854782,17.1288876 49.9550964,17.3671625 C49.4107238,17.6156857 48.7900372,17.9910327 48.1095713,18.484236 C47.459631,18.9774393 46.7651743,19.5782507 46.0478234,20.2725785 C45.5645019,20.7401608 45.0582861,21.2641093 44.5431671,21.8277703 C44.5088259,21.8662017 44.5037383,21.9225678 44.5304482,21.9674045 C44.5520704,22.0019927 44.5889555,22.0224895 44.6283844,22.0224895 C44.6385595,22.0224895 44.6487347,22.0212085 44.6601818,22.0186464 C45.4436715,21.793182 46.1762852,21.5292862 46.8364006,21.2346452 C47.7890528,20.8106185 48.6933729,20.3263825 49.5251947,19.7960288 C50.3404818,19.2503025 50.9509932,18.7660665 51.3440099,18.3574123 C51.7090449,17.9756601 51.8947421,17.6400256 51.8947421,17.3569141 C51.8947421,17.2954238 51.8858388,17.245463 51.8667603,17.1993452 C51.857857,17.1788485 51.8425942,17.1609138 51.8235157,17.1468223 C51.7484737,17.0994235 51.6772474,17.0661163 51.5933021,17.0404953 C51.5144443,17.0187175 51.4114205,17.0071881 51.2956778,17.0071881 Z M69.8107083,17.0071881 C69.4482171,17.0071881 68.997965,17.1288876 68.4713989,17.3671625 C67.9244824,17.6156857 67.3037958,17.9910327 66.6271456,18.484236 C65.9810211,18.9710341 65.2865643,19.5718454 64.5628539,20.2725785 C64.0782605,20.7414419 63.5707729,21.2653904 63.0569258,21.8277703 C63.0238564,21.8662017 63.0174969,21.9225678 63.0442068,21.9674045 C63.0645572,22.0019927 63.1027141,22.0224895 63.142143,22.0224895 C63.1523182,22.0224895 63.1624934,22.0212085 63.1726686,22.0186464 C63.9599739,21.7919009 64.6925876,21.5292862 65.3501593,21.2359263 C66.3040833,20.8106185 67.2096753,20.3263825 68.0389533,19.7960288 C68.8516966,19.2528646 69.462208,18.7686286 69.8603123,18.3574123 C70.2228035,17.974379 70.4072288,17.6400256 70.4072288,17.3569141 C70.4072288,17.3018291 70.3995974,17.2531492 70.3856065,17.2070315 C70.3754313,17.1814106 70.3588967,17.1609138 70.3385463,17.1468223 C70.2596886,17.0981425 70.1897341,17.0648352 70.1070607,17.0404953 C70.0269311,17.0187175 69.9264511,17.0071881 69.8107083,17.0071881 Z M113.055267,2.92847484 C112.54142,2.92847484 111.841875,3.24873674 110.976984,3.87901217 C110.086655,4.52850331 108.99155,5.51747207 107.726011,6.82157854 C106.484638,8.1282471 105.140241,9.69240623 103.733521,11.4705003 C102.670213,12.8143193 101.536951,14.3259554 100.368076,15.9618532 C100.337551,16.007971 100.341367,16.0707423 100.382067,16.1117358 C100.402418,16.1335136 100.431671,16.1463241 100.462197,16.1463241 C100.486363,16.1463241 100.507985,16.1386378 100.528336,16.1232652 C102.067333,15.0177212 103.517298,13.910896 104.837529,12.8373781 C106.58639,11.40901 108.153369,10.0139492 109.496494,8.68934595 C110.879048,7.3775532 111.918189,6.2527934 112.584664,5.34709273 C113.237148,4.46188883 113.567842,3.8072735 113.567842,3.40502455 C113.567842,3.25642303 113.551307,3.17443598 113.537316,3.12959932 L113.533501,3.11935094 C113.527141,3.09757313 113.511878,3.07835741 113.494072,3.06554694 L113.467362,3.04505017 L113.459731,3.03992598 C113.426661,3.0053377 113.382145,2.97971675 113.326181,2.95921998 C113.284209,2.94640951 113.202807,2.92847484 113.055267,2.92847484 Z M92.860058,10.6506298 C93.3726332,9.75517757 94.3914241,9.37983062 95.1354849,9.81282471 C95.8795457,10.2445378 96.0652429,11.3218988 95.5526677,12.21607 C95.0388206,13.1115223 94.0213015,13.4868693 93.2772408,13.0538752 C92.53318,12.6208811 92.3449389,11.5448011 92.860058,10.6506298 Z"/>
    </clipPath>
  </defs>
  <g transform="translate(-663.0 -17.0)">
    <g transform="translate(663.0 17.0)">
      <g clip-path="url(#i0)">
        <g clip-path="url(#i1)">
          <polygon points="0,0 115,0 115,36 0,36 0,0" stroke="none" fill="#1F2147"/>
        </g>
      </g>
    </g>
  </g>
</svg>
