<svg xmlns="http://www.w3.org/2000/svg" xmlns:xlink="http://www.w3.org/1999/xlink" id="final_svg" viewBox="291.4962158203125 449.4600524902344 491.5511474609375 186.00558471679688" xml:space="preserve">
    <g id="png_group" transform="translate(291.4962132478778, 449.4630222014351) scale(0.7125492063492064)" opacity="1">
        <g transform="rotate(0)">
            <style type="text/css">.st0{fill:url(#SVGID_1_);}	.st1{opacity:0.4;enable-background:new    ;}</style>
            <g id="color_index_g">
                <linearGradient id="SVGID_1_" gradientUnits="userSpaceOnUse" x1="0" y1="131.4829" x2="314.9" y2="131.4829" gradientTransform="matrix(1 0 0 -1 0 262)">
                    <stop offset="0" style="stop-color:rgba(255, 171, 0, 1)"/>
                    <stop offset="1" style="stop-color:rgba(255, 73, 73, 1)"/>
                </linearGradient>
                <path class="st0" d="M222.7,38.2C180.4-4,116.4-11.3,66.7,16.6c-10.2,5.7-19.8,12.9-28.5,21.6C12.7,63.7,0,97.1,0,130.5  s12.7,66.8,38.2,92.3c30.9,30.9,73.4,43.1,113.5,36.5c26-4.3,51-16.4,71-36.5l2.4-2.4l61.9-61.9l27.9-27.9L222.7,38.2z   M259.3,130.6l-64.4,64.3c-17.2,17.2-40.1,26.7-64.4,26.7c-14.9,0-29.3-3.6-42.1-10.3c-0.5-0.8-0.3-0.4-0.1,0  c-8.1-4.2-15.6-9.8-22.3-16.4c-17.2-17.2-26.7-40.1-26.7-64.4c0-24.4,9.5-47.3,26.7-64.5s40.1-26.7,64.5-26.7  c24.3,0,47.2,9.5,64.4,26.7l64.5,64.5L259.3,130.6z M159.3,101.8l28.8,28.8l-28.8,28.8c-15.9,15.9-41.6,15.9-57.5,0l0,0  c-15.9-15.9-15.9-41.6,0-57.5l0,0C117.7,86,143.4,86,159.3,101.8z"/>
            </g>
            <g>
                <path class="st1" d="M88.4,211.4C87.4,209.8,89.3,213.1,88.4,211.4c12.8,6.7,27.2,10.3,42.1,10.3c24.3,0,47.2-9.5,64.4-26.7  l64.4-64.3l27.8,27.8l-61.9,61.9C183.5,243.7,128.9,237.4,88.4,211.4z"/>
            </g>
        </g>
    </g>
    <g id="text_group" transform="rotate(0)" opacity="1">
        <g id="text_layer_1_0" fill="rgba(0, 0, 0, 1)" transform="translate(539.0974216478778, 442.56824720143504)">
            <path d="M83.25 126.66L83.25 147.67L9.74 147.67L9.74 42.68L30.75 42.68L30.75 126.66L83.25 126.66ZM158.73 83.32L121.24 128.49Q122.42 128.86 123.59 128.97Q124.76 129.08 125.93 129.08L125.93 129.08Q128.86 129.08 131.57 128.27Q134.28 127.47 136.66 125.97Q139.03 124.47 140.90 122.31Q142.77 120.15 143.94 117.51L143.94 117.51L158.58 132.23Q155.80 136.18 152.18 139.33Q148.55 142.48 144.34 144.67Q140.13 146.87 135.48 148.00Q130.83 149.14 125.93 149.14L125.93 149.14Q117.66 149.14 110.37 146.06Q103.09 142.99 97.63 137.50Q92.18 132.01 89.03 124.43Q85.88 116.85 85.88 107.77L85.88 107.77Q85.88 98.47 89.03 90.79Q92.18 83.10 97.63 77.68Q103.09 72.26 110.37 69.26Q117.66 66.26 125.93 66.26L125.93 66.26Q130.83 66.26 135.52 67.43Q140.21 68.60 144.42 70.80Q148.63 73.00 152.29 76.18Q155.95 79.36 158.73 83.32L158.73 83.32ZM108.21 118.17L131.49 87.27Q130.10 86.76 128.75 86.61Q127.39 86.47 125.93 86.47L125.93 86.47Q121.83 86.47 118.21 87.97Q114.58 89.47 111.91 92.25Q109.24 95.03 107.70 98.95Q106.16 102.87 106.16 107.77L106.16 107.77Q106.16 108.87 106.27 110.26Q106.38 111.65 106.64 113.08Q106.89 114.51 107.26 115.83Q107.63 117.14 108.21 118.17L108.21 118.17ZM243.95 107.77L243.95 107.77Q243.95 116.56 240.80 124.14Q237.66 131.71 232.24 137.24Q226.82 142.77 219.53 145.95Q212.25 149.14 203.90 149.14L203.90 149.14Q195.63 149.14 188.35 145.95Q181.06 142.77 175.61 137.24Q170.15 131.71 167.00 124.14Q163.85 116.56 163.85 107.77L163.85 107.77Q163.85 98.84 167.00 91.23Q170.15 83.61 175.61 78.08Q181.06 72.56 188.35 69.41Q195.63 66.26 203.90 66.26L203.90 66.26Q212.25 66.26 219.53 69.22Q226.82 72.19 232.24 77.64Q237.66 83.10 240.80 90.75Q243.95 98.40 243.95 107.77ZM223.82 107.77L223.82 107.77Q223.82 102.94 222.24 99.02Q220.67 95.11 217.96 92.29Q215.25 89.47 211.63 87.97Q208.00 86.47 203.90 86.47L203.90 86.47Q199.80 86.47 196.18 87.97Q192.56 89.47 189.88 92.29Q187.21 95.11 185.67 99.02Q184.14 102.94 184.14 107.77L184.14 107.77Q184.14 112.31 185.67 116.19Q187.21 120.07 189.88 122.93Q192.56 125.78 196.18 127.43Q199.80 129.08 203.90 129.08L203.90 129.08Q208.00 129.08 211.63 127.54Q215.25 126.00 217.96 123.22Q220.67 120.44 222.24 116.48Q223.82 112.53 223.82 107.77Z"/>
        </g>
    </g>
</svg>