<svg width="122" height="31" viewBox="0 0 122 31" fill="none" xmlns="http://www.w3.org/2000/svg">
<g clip-path="url(#clip0_501_1377)">
<path d="M95.5239 20.3874H91.7181C90.6925 20.3874 89.6669 20.3759 88.6413 20.3701C88.2166 20.3701 88.1419 20.4602 88.2338 20.8818C88.7772 23.3732 90.5892 25.4141 93.3388 25.9354C94.7746 26.2212 96.2627 26.0745 97.6153 25.5138C98.6906 25.0875 99.5925 24.313 100.177 23.3137C100.198 23.2787 100.22 23.2448 100.244 23.2122C100.259 23.1827 100.28 23.1569 100.305 23.1365C100.331 23.1162 100.361 23.1018 100.393 23.0945C100.425 23.0871 100.458 23.087 100.49 23.0941C100.522 23.1012 100.551 23.1154 100.577 23.1355C100.644 23.1695 100.707 23.2079 100.769 23.2505C101.088 23.47 101.421 23.6672 101.767 23.8408C102.131 24.0324 102.162 24.1206 101.943 24.4521C101.06 25.8418 99.7399 26.8977 98.1913 27.4532C97.3908 27.7307 96.5603 27.9121 95.7172 27.9936C94.9462 28.0799 94.1677 28.0741 93.3981 27.9764C92.0656 27.8016 90.7939 27.3115 89.688 26.5467C87.6732 25.1708 86.506 23.2716 86.1443 20.8646C85.9109 19.3123 85.9702 17.783 86.4964 16.2977C87.1852 14.3583 88.3715 12.8099 90.1702 11.7673C91.0905 11.2468 92.1006 10.9048 93.1475 10.7593C93.8266 10.6552 94.5146 10.6218 95.2006 10.6596C96.7116 10.73 98.1677 11.249 99.3833 12.1506C100.296 12.7972 101.067 13.6236 101.65 14.5792C102.233 15.5349 102.615 16.5996 102.772 17.7082C102.871 18.3555 102.91 19.0104 102.891 19.6649C102.891 19.8029 102.891 19.9408 102.891 20.0769C102.891 20.2992 102.837 20.3625 102.607 20.3816C102.456 20.3931 102.301 20.3912 102.148 20.3912L95.5239 20.3874ZM94.4084 18.3924H98.4075C99.0695 18.3924 99.7316 18.3924 100.394 18.3924C100.686 18.3924 100.748 18.3119 100.705 18.0187C100.631 17.499 100.495 16.9901 100.3 16.5028C99.7124 15.0271 98.7519 13.8773 97.2996 13.197C96.5453 12.8403 95.728 12.6369 94.8948 12.5984C94.0616 12.5599 93.2291 12.6871 92.4452 12.9727C90.2123 13.7393 88.869 15.3395 88.2835 17.6028C88.2272 17.7899 88.1919 17.9828 88.1783 18.1777C88.1783 18.3291 88.207 18.3694 88.3524 18.3809C88.4653 18.3905 88.5782 18.3905 88.6911 18.3905L94.4084 18.3924Z" fill="#21282E"/>
<path d="M33.1788 20.3782H27.6069H26.2981H26.1527C25.8676 20.3782 25.793 20.4702 25.8408 20.7615C25.8954 21.0965 25.9833 21.4251 26.1029 21.7427C26.9888 24.0903 28.6593 25.5238 31.1295 25.9588C32.5499 26.2218 34.0164 26.0516 35.339 25.4701C36.3924 25.0327 37.2718 24.2585 37.8399 23.2682C37.9623 23.0535 38.0312 23.0363 38.2474 23.1704C38.6512 23.4215 39.053 23.6744 39.4759 23.8948C39.7342 24.0309 39.7629 24.1459 39.5983 24.4008C39.0492 25.2639 38.3337 26.0086 37.4935 26.5912C36.6228 27.181 35.643 27.5903 34.6119 27.7948C33.6883 27.9944 32.7435 28.0781 31.7992 28.0439C30.1763 27.9881 28.6045 27.4622 27.2739 26.5299C25.7643 25.4893 24.6679 24.1306 24.1034 22.3694C23.6798 21.0406 23.5358 19.6383 23.6805 18.251C23.861 16.3429 24.6811 14.5523 26.0073 13.1706C27.0739 12.0417 28.4533 11.2581 29.968 10.9207C30.9971 10.6686 32.0605 10.5883 33.1156 10.683C34.653 10.8227 36.1135 11.4193 37.3099 12.3963C38.9325 13.6631 40.0194 15.4954 40.3541 17.5285C40.4936 18.3511 40.5424 19.1866 40.4995 20.0198C40.4983 20.0763 40.4932 20.1327 40.4842 20.1885C40.4517 20.3648 40.4 20.4146 40.2221 20.3955C39.9238 20.3801 39.6249 20.3801 39.3266 20.3955L33.1788 20.3782ZM32.2221 12.6244C31.7601 12.6286 31.2995 12.6761 30.8463 12.7662C28.1369 13.3411 26.3689 15.3534 25.8561 17.9233C25.7776 18.3066 25.8561 18.4005 26.2579 18.3985C26.8874 18.3985 27.517 18.389 28.1465 18.389H37.8284C37.926 18.389 38.0197 18.389 38.1192 18.4005C38.3393 18.4215 38.3737 18.4005 38.3546 18.1628C38.3262 17.8816 38.2737 17.6033 38.1977 17.3311C37.9218 16.1676 37.3251 15.1052 36.4756 14.2648C35.2969 13.1341 33.8714 12.632 32.2221 12.6244Z" fill="#21282E"/>
<path d="M68.4527 20.3795H62.5402C62.192 20.3795 61.8457 20.3795 61.4974 20.3795C61.4413 20.3766 61.3851 20.3766 61.329 20.3795C61.1377 20.4025 61.0726 20.4773 61.1071 20.6727C61.173 21.0465 61.2729 21.4134 61.4056 21.7689C62.2666 24.0514 63.893 25.4695 66.281 25.9352C67.7412 26.2285 69.2559 26.068 70.6226 25.4753C71.5798 25.0653 72.3979 24.3863 72.978 23.5205C73.2918 23.0625 73.3301 23.0529 73.8046 23.3289C74.1318 23.5205 74.4475 23.7313 74.7862 23.9038C75.0273 24.0245 75.056 24.1338 74.9086 24.3676C74.5913 24.8754 74.2142 25.3432 73.7854 25.7608C72.6793 26.8342 71.2816 27.5569 69.7673 27.8382C69.0795 27.9798 68.3798 28.0549 67.6778 28.0624C65.6052 28.1076 63.5847 27.4088 61.9815 26.0924C60.413 24.8487 59.3781 23.052 59.0884 21.0694C58.8046 19.48 58.909 17.8454 59.3927 16.3052C59.8598 14.9163 60.6862 13.6763 61.7877 12.7114C62.8892 11.7466 64.2264 11.0914 65.663 10.8128C67.385 10.4965 69.0918 10.5809 70.7221 11.2746C73.1387 12.3056 74.6809 14.1243 75.4367 16.6291C75.7193 17.6501 75.8369 18.7099 75.785 19.7682C75.785 19.8717 75.785 19.9771 75.785 20.0825C75.785 20.3412 75.7371 20.3776 75.4865 20.3795H68.4527ZM67.3621 18.3941H73.0813C73.1865 18.3941 73.2918 18.3941 73.397 18.3941C73.5884 18.3807 73.6515 18.3155 73.6266 18.1124C73.6037 17.9457 73.5769 17.777 73.5424 17.6122C73.2698 16.0904 72.4282 14.73 71.1889 13.8081C69.9669 12.8931 68.4414 12.4817 66.9258 12.6583C65.8604 12.7456 64.8331 13.0951 63.9351 13.6759C62.3757 14.6954 61.4726 16.15 61.1224 17.9667C61.0439 18.3692 61.0746 18.4075 61.4745 18.4075L67.3621 18.3941Z" fill="#21282E"/>
<path d="M114.542 28.051C112.339 28.0319 110.37 27.3592 108.702 25.9008C107.235 24.6403 106.268 22.8961 105.973 20.9833C105.677 19.3561 105.821 17.6791 106.392 16.1271C107.362 13.5629 109.197 11.9014 111.794 11.0735C112.828 10.7484 113.91 10.6013 114.993 10.6384C116.124 10.6519 117.239 10.9083 118.262 11.3903C119.285 11.8724 120.193 12.5688 120.925 13.4326C121.291 13.8643 121.597 14.344 121.834 14.8584C121.931 15.0615 121.912 15.1325 121.73 15.2417C121.316 15.4895 120.899 15.7348 120.479 15.9776C120.278 16.0945 120.23 16.0792 120.129 15.8664C119.363 14.2337 118.039 13.2639 116.321 12.8442C114.39 12.3709 112.55 12.6392 110.872 13.7335C110.146 14.2021 109.524 14.8134 109.041 15.5302C108.559 16.247 108.226 17.0544 108.065 17.9036C107.538 20.3949 108.208 22.5432 110.033 24.3102C110.977 25.2165 112.182 25.7996 113.478 25.9756C114.573 26.1583 115.695 26.0842 116.757 25.759C117.981 25.3628 119.041 24.5742 119.773 23.5149C119.924 23.306 120.056 23.0837 120.198 22.8671C120.339 22.6506 120.412 22.6237 120.649 22.7751C121.009 23.0051 121.378 23.2236 121.751 23.4325C122.029 23.5877 122.063 23.7046 121.906 23.9786C121.262 25.1264 120.336 26.0897 119.214 26.7766C118.204 27.3874 117.083 27.7894 115.915 27.9591C115.46 28.024 115.001 28.0547 114.542 28.051Z" fill="#21282E"/>
<path d="M0.478305 12.3679C0.466825 11.906 0.524228 11.4499 0.551016 10.99C0.581631 10.4572 0.629466 9.92639 0.675388 9.39554C0.815637 7.46065 1.14114 5.54373 1.64741 3.67119C1.77345 3.20221 1.97232 2.75599 2.23674 2.34886C2.71701 1.62637 3.23938 1.50181 3.99136 1.92917C4.69135 2.35166 5.31021 2.8962 5.81867 3.53704C7.33479 5.35681 8.63504 7.34658 9.69336 9.46644C10.2176 10.4956 10.6941 11.5458 11.1361 12.6132C11.1799 12.6998 11.209 12.793 11.2222 12.8892C10.8557 13.0511 10.4753 13.1794 10.0856 13.2725C9.77785 13.3595 9.46548 13.4292 9.14995 13.4813C8.78831 13.2265 8.42285 12.9773 8.06695 12.7148C7.75598 12.4704 7.38897 12.3077 6.99926 12.2414C6.80483 12.1977 6.60113 12.2275 6.42735 12.3252C6.25356 12.4228 6.12195 12.5814 6.05785 12.7704C5.95046 13.0652 5.8704 13.3692 5.81867 13.6787C5.81065 13.7452 5.79191 13.8099 5.76319 13.8704C5.62351 13.8934 5.49722 13.8167 5.35945 13.8225C5.07877 13.8219 4.799 13.7904 4.5252 13.7286C3.308 13.508 2.12835 13.115 1.02172 12.5615C0.848555 12.4764 0.666228 12.4114 0.478305 12.3679Z" fill="#21282E"/>
<path d="M57.3434 11.0186C56.8326 11.6836 56.337 12.3314 55.8376 12.9753C54.3642 14.8802 52.8903 16.7838 51.4156 18.6862L51.385 18.7245C51.1592 19.0235 51.1554 19.1366 51.385 19.4317C51.6893 19.8303 51.9992 20.2251 52.3054 20.6218L57.353 27.1644C57.4161 27.2469 57.4869 27.3254 57.5443 27.4097C57.5793 27.4424 57.6053 27.4836 57.6197 27.5292C57.6341 27.5749 57.6365 27.6235 57.6266 27.6704C57.5815 27.6923 57.5307 27.6996 57.4812 27.6915C56.8039 27.6915 56.1246 27.6915 55.4453 27.6915C55.3729 27.6932 55.3012 27.6766 55.237 27.643C55.1727 27.6095 55.118 27.5603 55.0779 27.4998C53.8393 25.8939 52.5994 24.2898 51.3582 22.6877L50.0188 20.9629C49.9634 20.8939 49.9059 20.8268 49.8409 20.7483C49.7602 20.82 49.6905 20.9033 49.6342 20.9955C48.2936 22.7267 46.9542 24.4572 45.6161 26.1871C45.3735 26.4792 45.148 26.785 44.9406 27.1031C44.8327 27.2851 44.68 27.4363 44.4971 27.5423C44.3142 27.6483 44.1072 27.7056 43.8959 27.7087C43.8233 27.7135 43.7504 27.7135 43.6777 27.7087C43.1954 27.6678 42.7108 27.6595 42.2274 27.6838C42.1661 27.6838 42.0877 27.7164 42.0494 27.6474C42.0112 27.5784 42.0494 27.4902 42.103 27.427C43.2071 26.074 44.2479 24.675 45.3271 23.3029C46.3004 22.0649 47.2718 20.8243 48.2413 19.5812C48.557 19.1768 48.557 19.0484 48.2413 18.646C46.3763 16.2389 44.5114 13.8306 42.6464 11.4211C42.5667 11.3405 42.4991 11.2488 42.4455 11.1489C42.3938 11.0244 42.413 10.9899 42.5469 10.9841C42.6809 10.9784 42.7899 10.9841 42.9105 10.9841C43.4845 10.9841 44.0413 10.9841 44.6077 10.9841C44.681 10.9762 44.7551 10.9881 44.8224 11.0184C44.8896 11.0487 44.9476 11.0964 44.9904 11.1566C45.4362 11.7909 45.9298 12.3908 46.4025 13.0059C47.4867 14.4113 48.571 15.8167 49.6553 17.2221C49.702 17.2979 49.7639 17.3631 49.8371 17.4137C49.9059 17.383 49.9385 17.316 49.9806 17.2623C51.2166 15.673 52.4514 14.0842 53.685 12.4962C53.8742 12.2542 54.0492 12.0015 54.2092 11.7392C54.3721 11.4483 54.6221 11.216 54.9239 11.0751C55.2256 10.9341 55.564 10.8916 55.8911 10.9535C56.2846 10.994 56.6802 11.0088 57.0756 10.9975C57.1653 10.9832 57.2571 10.9905 57.3434 11.0186Z" fill="#21282E"/>
<path d="M14.6185 12.025C14.6185 11.5478 14.6051 11.0668 14.6185 10.5953C14.6395 9.87667 14.6357 9.15609 14.6395 8.43743C14.6395 6.9043 14.6395 5.37116 14.6549 3.83803C14.6428 3.4691 14.708 3.10174 14.846 2.7595C14.9841 2.41726 15.1921 2.10771 15.4566 1.8507C15.6614 1.6544 15.8942 1.4897 16.1473 1.36201C16.9012 0.978725 17.657 0.595441 18.4147 0.212157C18.5575 0.135608 18.7083 0.0751883 18.8644 0.032013C18.9308 0.00605282 19.0018 -0.006061 19.0731 -0.00359237C19.1444 -0.00112374 19.2144 0.015876 19.2788 0.0463709C19.3433 0.0768658 19.4009 0.120213 19.4481 0.173762C19.4953 0.22731 19.531 0.289936 19.5532 0.357807C19.6854 0.680072 19.7636 1.02194 19.7847 1.36968C19.8823 2.26464 19.8268 3.16153 19.823 4.05266C19.823 5.39416 19.7867 6.7184 19.7656 8.05223C19.7503 9.05516 19.7337 10.0568 19.7159 11.0572C19.7159 11.4615 19.6929 11.8659 19.6814 12.2684C19.6171 12.2671 19.5531 12.2601 19.4901 12.2473C19.182 12.1859 18.8759 12.1246 18.5697 12.069C18.1985 12.0001 17.8267 11.9419 17.4542 11.8947C17.2266 11.8469 16.9936 11.8302 16.7615 11.8448C16.4822 11.887 16.2086 11.8295 15.9292 11.8678C15.4891 11.9311 15.0471 11.9598 14.6185 12.025Z" fill="#21282E"/>
<path d="M79.8472 15.6649V4.0955C79.8415 3.99849 79.8415 3.90121 79.8472 3.8042C79.8759 3.59723 79.9792 3.48799 80.1859 3.50141C80.5487 3.51074 80.9118 3.49601 81.2727 3.45733C81.3613 3.45537 81.4498 3.46308 81.5368 3.48032C81.6379 3.49246 81.7321 3.53777 81.8048 3.60919C81.8775 3.6806 81.9245 3.7741 81.9386 3.87511C81.9685 4.00059 81.975 4.13054 81.9577 4.25839C81.8353 5.1112 81.8984 5.96976 81.885 6.82448C81.885 6.93755 81.885 7.05061 81.885 7.16368C81.885 13.438 81.885 19.7118 81.885 25.9848C81.885 26.3892 81.8965 26.7917 81.885 27.196C81.885 27.633 81.8047 27.7115 81.376 27.6885C80.9474 27.6655 80.5514 27.6885 80.14 27.6885C79.8836 27.6885 79.8319 27.633 79.8319 27.3742V15.6649H79.8472Z" fill="#21282E"/>
<path d="M12.1616 23.8685C11.8765 23.4852 11.645 23.0521 11.3962 22.6382C10.8018 21.6391 10.2475 20.617 9.73345 19.5719C9.68996 19.5038 9.65887 19.4285 9.6416 19.3496C9.78128 19.1464 10.0109 19.1829 10.2156 19.1579C10.4204 19.133 10.627 19.0909 10.8318 19.0736C11.0365 19.0564 11.1666 18.9605 11.3465 18.9567C11.4269 18.959 11.5043 18.988 11.5665 19.0391C11.7272 19.1484 11.8937 19.248 12.0563 19.3496C12.2131 19.45 12.3859 19.5226 12.5672 19.5642C12.7359 19.6137 12.9152 19.6147 13.0844 19.5669C13.2536 19.5191 13.4059 19.4245 13.5239 19.294C13.6658 19.1393 13.7839 18.9643 13.8741 18.7747C13.9487 18.6233 14.0233 18.4719 14.0961 18.3185C14.1638 18.3689 14.2426 18.4022 14.3259 18.4155C14.4091 18.4289 14.4944 18.4219 14.5744 18.3952C14.938 18.2975 15.3073 18.2208 15.6746 18.1384C16.801 17.8829 17.928 17.6312 19.0557 17.3833C19.2015 17.3383 19.3528 17.3132 19.5053 17.3086C19.5053 18.0752 19.4709 18.8551 19.4154 19.6255C19.3809 20.1161 19.3484 20.6068 19.3082 21.0954C19.2317 22.0192 19.1341 22.939 18.9925 23.8532C18.9272 23.8848 18.8558 23.9022 18.7833 23.9042C18.7107 23.9062 18.6385 23.8927 18.5716 23.8647C18.4808 23.8327 18.3881 23.8064 18.2941 23.7861C17.4978 23.56 16.6725 23.4528 15.8449 23.468C15.3953 23.4852 14.9456 23.4526 14.5055 23.5082C14.1726 23.5485 13.8358 23.5734 13.5029 23.6079C13.0495 23.6586 12.601 23.7457 12.1616 23.8685Z" fill="#21282E"/>
<path d="M0.478429 12.3672C0.666272 12.4101 0.848596 12.4744 1.02184 12.5588C2.12847 13.1124 3.30813 13.5053 4.52532 13.7259C4.79913 13.7878 5.0789 13.8193 5.35958 13.8198C5.49734 13.8198 5.62363 13.8907 5.76331 13.8677C5.74418 14.4542 5.72504 15.0425 5.70208 15.6308C5.67912 16.2192 5.65233 16.8554 5.61598 17.4668C5.5911 17.8769 5.61598 18.287 5.61598 18.6971C5.61925 18.8665 5.60708 19.0359 5.57962 19.2031C5.43037 19.3794 5.22755 19.3506 5.02856 19.3506C4.5789 19.3506 4.13499 19.2931 3.68916 19.2625C3.24333 19.2318 2.78219 19.1666 2.33063 19.1149C1.74129 19.0459 1.16152 18.9233 0.5741 18.86C0.382758 18.8389 0.302394 18.7297 0.30048 18.5304C0.30048 18.2793 0.30048 18.0302 0.30048 17.7792C0.30048 17.7025 0.327269 17.6163 0.250732 17.5549C0.269867 16.8133 0.279433 16.0716 0.310048 15.33C0.35023 14.4043 0.407633 13.4787 0.459295 12.5531C0.462133 12.4908 0.468521 12.4287 0.478429 12.3672Z" fill="#21282E"/>
<path d="M0.237325 17.5586C0.313862 17.6199 0.285161 17.7062 0.287075 17.7828C0.287075 18.0339 0.287075 18.283 0.287075 18.5341C0.287075 18.7257 0.369352 18.8426 0.560694 18.8637C1.14812 18.9307 1.72789 19.0553 2.31722 19.1186C2.76879 19.1703 3.22036 19.2335 3.67575 19.2661C4.13115 19.2987 4.56741 19.3543 5.01515 19.3543C5.20649 19.3543 5.41697 19.383 5.56622 19.2067C5.57485 19.4458 5.5691 19.6851 5.549 19.9235C5.52986 20.2665 5.51455 20.6095 5.49733 20.9507C5.37296 21.0062 5.42654 21.1193 5.42654 21.2075C5.42654 22.3765 5.42654 23.5474 5.42654 24.7164C5.43331 24.7769 5.42657 24.8381 5.4068 24.8956C5.38703 24.9532 5.35473 25.0056 5.31223 25.0491C5.26973 25.0925 5.21811 25.126 5.1611 25.147C5.10409 25.1681 5.04312 25.1761 4.98262 25.1706C4.38774 25.1994 3.79153 25.1821 3.19931 25.1189C3.03093 25.0959 2.86254 25.094 2.69799 25.0671L1.60925 24.8755C1.10383 24.7893 0.603643 24.6748 0.11104 24.5324C0.0900348 24.3076 0.0842806 24.0816 0.0938182 23.8559C0.0804242 22.6697 0.126347 21.4834 0.156962 20.2972C0.179923 19.4673 0.181836 18.6356 0.199057 17.8058C0.206711 17.7292 0.174182 17.6353 0.237325 17.5586Z" fill="#21282E"/>
<path d="M19.494 17.3163C19.3414 17.3209 19.1902 17.3461 19.0443 17.3911C17.9179 17.6402 16.7909 17.8919 15.6633 18.1462C15.2959 18.2286 14.9266 18.3052 14.5631 18.403C14.4831 18.4297 14.3978 18.4366 14.3145 18.4233C14.2312 18.4099 14.1524 18.3767 14.0847 18.3263C14.1938 17.8146 14.3048 17.3029 14.3698 16.7798C14.4215 16.3543 14.4636 15.9289 14.4808 15.5015C14.5293 14.4462 14.5516 13.389 14.5478 12.3298C14.5423 12.2243 14.5647 12.1192 14.6128 12.0251C15.0472 11.96 15.4892 11.9312 15.9235 11.868C16.2029 11.8296 16.4765 11.8871 16.7559 11.845C16.9879 11.8303 17.2209 11.8471 17.4485 11.8948C17.8223 11.9433 18.1941 12.0015 18.564 12.0692C18.8702 12.1248 19.1763 12.1861 19.4844 12.2474C19.5474 12.2602 19.6115 12.2673 19.6757 12.2685C19.693 12.8818 19.6757 13.495 19.6624 14.1063C19.6432 14.6813 19.6164 15.2677 19.5916 15.8484C19.5724 16.2834 19.5495 16.7184 19.5265 17.1535C19.5283 17.2095 19.5172 17.2653 19.494 17.3163Z" fill="#21282E"/>
<path d="M0.116784 24.5427C0.606873 24.6848 1.1045 24.7993 1.60734 24.8858L2.69608 25.0774C2.86064 25.1042 3.02902 25.1062 3.1974 25.1291C3.78962 25.1924 4.38583 25.2097 4.98071 25.1809C5.04122 25.1864 5.10218 25.1783 5.15919 25.1573C5.2162 25.1363 5.26782 25.1028 5.31032 25.0593C5.35282 25.0159 5.38512 24.9635 5.40489 24.9059C5.42466 24.8484 5.4314 24.7872 5.42463 24.7267C5.41315 23.5577 5.42463 22.3868 5.42463 21.2177C5.42463 21.1296 5.37105 21.0165 5.49542 20.9609C5.53178 21.3327 5.51265 21.7045 5.51265 22.0744C5.51265 23.8356 5.51265 25.5968 5.51265 27.3579C5.52905 27.7773 5.42742 28.1928 5.21934 28.5571C5.01127 28.9214 4.70514 29.2197 4.33589 29.4181C3.37723 29.9653 2.38687 30.4549 1.37008 30.8842C1.22314 30.9521 1.06477 30.9917 0.903202 31.0011C0.789823 31.011 0.676088 30.9863 0.577017 30.9302C0.477945 30.8741 0.398198 30.7892 0.348308 30.6868C0.245378 30.477 0.180585 30.2505 0.156966 30.0179C0.116492 29.787 0.097913 29.5528 0.101476 29.3184C0.0988849 29.0449 0.0752166 28.772 0.0306803 28.502C0.00935241 28.2932 0.00231997 28.0832 0.0096325 27.8735C0.0096325 27.5496 0.00963174 27.2276 0.0402465 26.9057C0.0450143 26.6721 0.0354303 26.4385 0.0115463 26.2062C0.00223693 26.0363 0.0170535 25.866 0.0555543 25.7002C0.102411 25.3896 0.11971 25.0751 0.107218 24.7612C0.103391 24.6865 0.111044 24.6136 0.116784 24.5427Z" fill="#21282E"/>
<path d="M12.1616 23.8689C12.5944 23.7505 13.0359 23.6665 13.4819 23.6179C13.8148 23.5834 14.1516 23.5585 14.4845 23.5182C14.9342 23.4626 15.3838 23.4952 15.8239 23.478C16.6515 23.4628 17.4768 23.57 18.2731 23.7961C18.3671 23.8164 18.4598 23.8427 18.5505 23.8747C18.6175 23.9027 18.6897 23.9162 18.7623 23.9142C18.8348 23.9122 18.9061 23.8948 18.9715 23.8632C18.8907 24.9498 18.7023 26.0258 18.409 27.0751C18.2611 27.597 18.0618 28.1029 17.8139 28.5852C17.7617 28.6855 17.7009 28.7811 17.6321 28.8708C17.28 29.3422 16.8361 29.4457 16.3118 29.1621C16.0366 29.0086 15.7825 28.8199 15.556 28.6006C15.0877 28.1546 14.6635 27.6642 14.2893 27.1364C13.6281 26.2689 13.0161 25.3649 12.4563 24.4285C12.3406 24.2518 12.2419 24.0644 12.1616 23.8689Z" fill="#21282E"/>
<path d="M9.1499 13.4867C9.46543 13.4346 9.77781 13.3648 10.0856 13.2778C10.4752 13.1847 10.8556 13.0565 11.2221 12.8945C11.6588 13.8473 12.0066 14.8385 12.2611 15.8554C12.3109 16.047 12.3568 16.2272 12.4046 16.4188C12.3071 16.4188 12.2669 16.346 12.2133 16.2981C11.2132 15.3616 10.201 14.4372 9.17669 13.525C9.16666 13.5131 9.15769 13.5002 9.1499 13.4867Z" fill="#21282E"/>
<path d="M11.3408 18.9663C11.161 18.9663 11.006 19.0698 10.8261 19.0832C10.6463 19.0966 10.4167 19.1426 10.21 19.1675C10.0034 19.1924 9.78331 19.1541 9.63597 19.3591C9.45087 19.0853 9.28588 18.7984 9.14231 18.5006C8.70031 17.665 8.30805 16.8065 7.92345 15.9422C7.90432 15.9 7.88901 15.854 7.8584 15.7773C7.95312 15.8128 8.03829 15.8699 8.10714 15.9441L9.90194 17.573C10.3076 17.941 10.7132 18.3147 11.1208 18.6807C11.2173 18.7555 11.2931 18.8538 11.3408 18.9663Z" fill="#21282E"/>
</g>
<defs>
<clipPath id="clip0_501_1377">
<rect width="122" height="31" fill="white"/>
</clipPath>
</defs>
</svg>
