<svg width="382" height="77" viewBox="0 0 382 77" fill="none" xmlns="http://www.w3.org/2000/svg">
<path d="M133.4 39.24C132.03 38.14 130.5 37.2199 128.8 36.4799C127.1 35.7499 125.33 35.16 123.49 34.72L118.94 33.5699C117.61 33.2199 116.3 32.7799 115.02 32.2599C113.74 31.7299 112.69 31.04 111.87 30.18C111.05 29.32 110.64 28.2099 110.64 26.8499C110.64 25.6199 110.99 24.5299 111.69 23.5699C112.39 22.6099 113.4 21.85 114.72 21.31C116.04 20.76 117.62 20.49 119.45 20.49C122.09 20.49 124.23 21.06 125.86 22.21C127.49 23.36 128.41 24.98 128.63 27.08H137.18C137.11 24.32 136.34 21.8799 134.85 19.7599C133.36 17.6399 131.31 15.97 128.69 14.77C126.07 13.57 123.02 12.96 119.55 12.96C116.08 12.96 113.09 13.56 110.39 14.77C107.69 15.97 105.57 17.65 104.02 19.81C102.47 21.97 101.69 24.49 101.69 27.38C101.69 30.9 102.85 33.72 105.16 35.83C107.48 37.94 110.64 39.5099 114.66 40.5399L120.2 41.9799C121.97 42.4199 123.51 42.92 124.82 43.49C126.13 44.06 127.16 44.7499 127.9 45.5699C128.64 46.3899 129.01 47.44 129.01 48.7C129.01 50.1 128.59 51.33 127.76 52.38C126.93 53.43 125.78 54.25 124.32 54.84C122.86 55.43 121.16 55.7299 119.24 55.7299C117.32 55.7299 115.74 55.45 114.24 54.88C112.74 54.31 111.54 53.46 110.62 52.34C109.7 51.21 109.18 49.8 109.05 48.09H100.33C100.46 51.33 101.31 54.08 102.89 56.34C104.46 58.6 106.65 60.3299 109.44 61.5099C112.24 62.6899 115.53 63.28 119.34 63.28C123.15 63.28 126.55 62.67 129.3 61.44C132.05 60.21 134.16 58.51 135.62 56.34C137.08 54.16 137.82 51.65 137.82 48.81C137.82 46.69 137.42 44.8399 136.62 43.2599C135.82 41.6899 134.74 40.34 133.38 39.24H133.4Z" fill="#090913"/>
<path d="M175.26 25.8299H165.17L152.03 40.5699H151.4V13.6199H142.79V62.5299H151.4V50.2299L154.54 46.8499L165.76 62.5299H176.08L161.06 41.6899L175.26 25.8299Z" fill="#090913"/>
<path d="M204.37 29.7999C202.81 28.2899 201.02 27.1699 199 26.4499C196.98 25.7299 194.84 25.3699 192.59 25.3699C189.09 25.3699 186.06 26.1699 183.48 27.7699C180.9 29.3699 178.9 31.5899 177.48 34.4499C176.06 37.3099 175.35 40.6299 175.35 44.4099C175.35 48.1899 176.06 51.5699 177.5 54.3899C178.93 57.2099 180.98 59.3999 183.64 60.9399C186.3 62.4799 189.47 63.2499 193.14 63.2499C195.98 63.2499 198.5 62.8199 200.69 61.9499C202.89 61.0899 204.69 59.8599 206.1 58.2699C207.51 56.6799 208.48 54.8299 209 52.7099L200.94 51.7599C200.55 52.8099 199.98 53.6899 199.25 54.3999C198.52 55.1099 197.64 55.6399 196.63 55.9899C195.61 56.3399 194.49 56.5099 193.27 56.5099C191.39 56.5099 189.75 56.0899 188.34 55.2599C186.93 54.4299 185.84 53.2199 185.06 51.6299C184.36 50.1999 183.98 48.5099 183.91 46.5599H209.39V43.8699C209.39 40.6499 208.94 37.8799 208.05 35.5499C207.15 33.2199 205.92 31.2999 204.36 29.7899L204.37 29.7999ZM187.9 33.4099C189.21 32.5399 190.79 32.0999 192.65 32.0999C194.51 32.0999 196.06 32.5399 197.3 33.4099C198.55 34.2899 199.48 35.4899 200.12 37.0399C200.57 38.1399 200.86 39.3899 200.99 40.7699H183.95C184.06 39.3899 184.38 38.1099 184.92 36.9499C185.6 35.4699 186.59 34.2999 187.9 33.4199V33.4099Z" fill="#090913"/>
<path d="M241.5 29.7999C239.94 28.2899 238.15 27.1699 236.13 26.4499C234.11 25.7299 231.97 25.3699 229.72 25.3699C226.22 25.3699 223.19 26.1699 220.61 27.7699C218.03 29.3699 216.03 31.5899 214.61 34.4499C213.19 37.3099 212.48 40.6299 212.48 44.4099C212.48 48.1899 213.2 51.5699 214.63 54.3899C216.06 57.2099 218.11 59.3999 220.77 60.9399C223.44 62.4799 226.6 63.2499 230.27 63.2499C233.11 63.2499 235.63 62.8199 237.82 61.9499C240.02 61.0899 241.82 59.8599 243.23 58.2699C244.64 56.6799 245.61 54.8299 246.13 52.7099L238.07 51.7599C237.68 52.8099 237.11 53.6899 236.38 54.3999C235.65 55.1099 234.77 55.6399 233.76 55.9899C232.74 56.3399 231.62 56.5099 230.4 56.5099C228.52 56.5099 226.88 56.0899 225.47 55.2599C224.06 54.4299 222.97 53.2199 222.19 51.6299C221.49 50.1999 221.11 48.5099 221.04 46.5599H246.52V43.8699C246.52 40.6499 246.07 37.8799 245.18 35.5499C244.28 33.2199 243.05 31.2999 241.49 29.7899L241.5 29.7999ZM225.03 33.4099C226.34 32.5399 227.92 32.0999 229.78 32.0999C231.64 32.0999 233.19 32.5399 234.43 33.4099C235.68 34.2899 236.61 35.4899 237.25 37.0399C237.7 38.1399 237.99 39.3899 238.12 40.7699H221.08C221.19 39.3899 221.51 38.1099 222.05 36.9499C222.73 35.4699 223.72 34.2999 225.03 33.4199V33.4099Z" fill="#090913"/>
<path d="M278.28 27.5399C276.01 26.0999 273.46 25.3699 270.64 25.3699C268.48 25.3699 266.7 25.7299 265.32 26.4499C263.93 27.1699 262.83 28.0399 262.03 29.0599C261.22 30.0799 260.6 31.0199 260.16 31.8999H259.64V25.8299H251.19V76.2499H259.81V56.7199H260.17C260.61 57.6199 261.25 58.5599 262.09 59.5599C262.93 60.5599 264.04 61.4099 265.43 62.1199C266.82 62.8299 268.55 63.1899 270.62 63.1899C273.5 63.1899 276.09 62.4499 278.37 60.9699C280.65 59.4899 282.45 57.3399 283.76 54.5199C285.07 51.6999 285.73 48.2699 285.73 44.2499C285.73 40.2299 285.06 36.7099 283.71 33.9099C282.37 31.1099 280.56 28.9899 278.29 27.5399H278.28ZM275.92 50.3199C275.26 52.1099 274.3 53.5299 273.02 54.5499C271.74 55.5799 270.15 56.0899 268.25 56.0899C266.35 56.0899 264.85 55.5899 263.56 54.5999C262.27 53.5999 261.29 52.2199 260.63 50.4299C259.96 48.6499 259.63 46.5699 259.63 44.2099C259.63 41.8499 259.96 39.7499 260.63 37.9899C261.3 36.2299 262.27 34.8699 263.55 33.8999C264.83 32.9399 266.4 32.4599 268.25 32.4599C270.1 32.4599 271.77 32.9599 273.03 33.9699C274.3 34.9799 275.26 36.3699 275.91 38.1399C276.57 39.9099 276.89 41.9399 276.89 44.2099C276.89 46.4799 276.56 48.5199 275.91 50.3199H275.92Z" fill="#090913"/>
<path d="M317.95 29.7999C316.39 28.2899 314.6 27.1699 312.58 26.4499C310.56 25.7299 308.42 25.3699 306.17 25.3699C302.67 25.3699 299.64 26.1699 297.06 27.7699C294.48 29.3699 292.48 31.5899 291.06 34.4499C289.64 37.3099 288.93 40.6299 288.93 44.4099C288.93 48.1899 289.65 51.5699 291.08 54.3899C292.51 57.2099 294.56 59.3999 297.22 60.9399C299.88 62.4799 303.05 63.2499 306.72 63.2499C309.56 63.2499 312.08 62.8199 314.27 61.9499C316.47 61.0899 318.27 59.8599 319.68 58.2699C321.09 56.6799 322.06 54.8299 322.58 52.7099L314.52 51.7599C314.13 52.8099 313.56 53.6899 312.83 54.3999C312.1 55.1099 311.22 55.6399 310.21 55.9899C309.19 56.3399 308.07 56.5099 306.85 56.5099C304.97 56.5099 303.33 56.0899 301.92 55.2599C300.51 54.4299 299.42 53.2199 298.64 51.6299C297.94 50.1999 297.56 48.5099 297.49 46.5599H322.97V43.8699C322.97 40.6499 322.52 37.8799 321.63 35.5499C320.73 33.2199 319.5 31.2999 317.94 29.7899L317.95 29.7999ZM301.48 33.4099C302.79 32.5399 304.37 32.0999 306.23 32.0999C308.09 32.0999 309.64 32.5399 310.88 33.4099C312.13 34.2899 313.06 35.4899 313.7 37.0399C314.15 38.1399 314.44 39.3899 314.57 40.7699H297.53C297.64 39.3899 297.96 38.1099 298.5 36.9499C299.18 35.4699 300.17 34.2999 301.48 33.4199V33.4099Z" fill="#090913"/>
<path d="M345.43 25.3398C343.33 25.3398 341.47 25.9098 339.83 27.0598C338.19 28.2098 337.04 29.8598 336.39 31.9998H336V25.8298H327.64V62.5298H336.26V40.9998C336.26 39.4198 336.61 38.0498 337.32 36.8598C338.03 35.6798 339.01 34.7498 340.25 34.0698C341.5 33.3898 342.91 33.0498 344.51 33.0498C345.23 33.0498 345.98 33.0898 346.77 33.1798C347.56 33.2698 348.13 33.3798 348.51 33.5098V25.5698C348.12 25.4998 347.62 25.4499 347.02 25.4099C346.42 25.3699 345.89 25.3398 345.43 25.3398Z" fill="#090913"/>
<path d="M378.88 45.1599C377.18 43.5199 374.61 42.3399 371.18 41.6199L364.92 40.3099C363.06 39.8899 361.74 39.3399 360.94 38.6499C360.14 37.9599 359.74 37.0799 359.74 36.0099C359.74 34.7799 360.35 33.7799 361.56 32.9899C362.77 32.1999 364.27 31.8099 366.07 31.8099C368.06 31.8099 369.6 32.2699 370.69 33.1999C371.78 34.1299 372.49 35.1999 372.82 36.3999L380.65 35.5799C380.06 32.4699 378.54 29.9899 376.08 28.1499C373.62 26.2999 370.24 25.3799 365.94 25.3799C363.01 25.3799 360.43 25.8399 358.21 26.7599C355.98 27.6799 354.25 28.9699 353 30.6299C351.75 32.2899 351.13 34.2599 351.13 36.5399C351.13 39.2099 351.97 41.3999 353.65 43.1199C355.33 44.8399 357.93 46.0799 361.45 46.8499L367.71 48.1599C370.99 48.8999 372.62 50.2999 372.62 52.3599C372.62 53.5899 372 54.6199 370.75 55.4599C369.5 56.2999 367.85 56.7199 365.8 56.7199C363.75 56.7199 362.22 56.2999 360.97 55.4599C359.71 54.6199 358.9 53.3799 358.53 51.7299L350.11 52.5199C350.66 55.8899 352.29 58.5199 355.01 60.4099C357.73 62.2999 361.33 63.2499 365.81 63.2499C368.87 63.2499 371.57 62.7599 373.92 61.7699C376.27 60.7799 378.11 59.4099 379.44 57.6299C380.77 55.8599 381.44 53.8199 381.44 51.5199C381.44 48.9199 380.59 46.7899 378.88 45.1499V45.1599Z" fill="#090913"/>
<path d="M63.54 25.42C70.5596 25.42 76.2501 19.7295 76.2501 12.71C76.2501 5.69045 70.5596 0 63.54 0C56.5205 0 50.8301 5.69045 50.8301 12.71C50.8301 19.7295 56.5205 25.42 63.54 25.42Z" fill="#0073FF"/>
<path d="M12.71 76.2501C19.7296 76.2501 25.42 70.5596 25.42 63.5401C25.42 56.5205 19.7296 50.8301 12.71 50.8301C5.69048 50.8301 0 56.5205 0 63.5401C0 70.5596 5.69048 76.2501 12.71 76.2501Z" fill="#0073FF"/>
<path d="M50.84 0H25.42C11.38 0 0 11.38 0 25.42C0 39.46 11.38 50.84 25.42 50.84V25.42H50.84V0Z" fill="#0073FF"/>
<path d="M50.8399 25.4099V50.8299H25.4199V76.2499H50.8399C64.8799 76.2499 76.2599 64.8699 76.2599 50.8299C76.2599 36.7899 64.8799 25.4099 50.8399 25.4099Z" fill="#0073FF"/>
</svg>
