<svg width="800" height="500" viewBox="0 0 800 500" xmlns="http://www.w3.org/2000/svg">
  <defs>
    <linearGradient id="bgGradient" x1="0%" y1="0%" x2="100%" y2="100%">
      <stop offset="0%" style="stop-color:#f8fafc;stop-opacity:1"/>
      <stop offset="100%" style="stop-color:#e2e8f0;stop-opacity:1"/>
    </linearGradient>
    <linearGradient id="primaryGradient" x1="0%" y1="0%" x2="100%" y2="100%">
      <stop offset="0%" style="stop-color:#5530E0;stop-opacity:1"/>
      <stop offset="100%" style="stop-color:#7c3aed;stop-opacity:1"/>
    </linearGradient>
  </defs>
  
  <!-- Background -->
  <rect width="800" height="500" fill="url(#bgGradient)"/>
  
  <!-- Main Title -->
  <text x="400" y="60" font-family="Arial, sans-serif" font-size="28" font-weight="bold" fill="#1f2937" text-anchor="middle">L'Oréal Project Audit</text>
  <text x="400" y="85" font-family="Arial, sans-serif" font-size="14" fill="#64748b" text-anchor="middle">3 months • 100+ projects analyzed</text>
  
  <!-- Big Numbers -->
  <rect x="50" y="120" width="160" height="120" rx="12" fill="#ffffff" stroke="#e5e7eb" stroke-width="2"/>
  <text x="130" y="160" font-family="Arial, sans-serif" font-size="36" font-weight="bold" fill="#5530E0" text-anchor="middle">100+</text>
  <text x="130" y="185" font-family="Arial, sans-serif" font-size="14" fill="#64748b" text-anchor="middle">Projects</text>
  <text x="130" y="205" font-family="Arial, sans-serif" font-size="14" fill="#64748b" text-anchor="middle">Audited</text>
  
  <rect x="230" y="120" width="160" height="120" rx="12" fill="#ffffff" stroke="#e5e7eb" stroke-width="2"/>
  <text x="310" y="160" font-family="Arial, sans-serif" font-size="36" font-weight="bold" fill="#10b981" text-anchor="middle">15</text>
  <text x="310" y="185" font-family="Arial, sans-serif" font-size="14" fill="#64748b" text-anchor="middle">Terraform</text>
  <text x="310" y="205" font-family="Arial, sans-serif" font-size="14" fill="#64748b" text-anchor="middle">Modules</text>
  
  <rect x="410" y="120" width="160" height="120" rx="12" fill="#ffffff" stroke="#e5e7eb" stroke-width="2"/>
  <text x="490" y="160" font-family="Arial, sans-serif" font-size="36" font-weight="bold" fill="#f59e0b" text-anchor="middle">4</text>
  <text x="490" y="185" font-family="Arial, sans-serif" font-size="14" fill="#64748b" text-anchor="middle">Boilerplate</text>
  <text x="490" y="205" font-family="Arial, sans-serif" font-size="14" fill="#64748b" text-anchor="middle">Projects</text>
  
  <rect x="590" y="120" width="160" height="120" rx="12" fill="#ffffff" stroke="#e5e7eb" stroke-width="2"/>
  <text x="670" y="160" font-family="Arial, sans-serif" font-size="36" font-weight="bold" fill="#ef4444" text-anchor="middle">80%</text>
  <text x="670" y="185" font-family="Arial, sans-serif" font-size="14" fill="#64748b" text-anchor="middle">Faster</text>
  <text x="670" y="205" font-family="Arial, sans-serif" font-size="14" fill="#64748b" text-anchor="middle">Deployment</text>
  
  <!-- Process Flow -->
  <rect x="100" y="280" width="600" height="80" rx="40" fill="#ffffff" stroke="#e5e7eb" stroke-width="2"/>
  
  <!-- Step 1 -->
  <circle cx="180" cy="320" r="25" fill="#5530E0"/>
  <text x="180" y="327" font-family="Arial, sans-serif" font-size="16" font-weight="bold" fill="white" text-anchor="middle">1</text>
  <text x="180" y="350" font-family="Arial, sans-serif" font-size="12" fill="#374151" text-anchor="middle">Audit</text>
  
  <!-- Arrow 1 -->
  <path d="M 210 320 L 250 320" stroke="#5530E0" stroke-width="2" fill="none"/>
  <polygon points="245,317 255,320 245,323" fill="#5530E0"/>
  
  <!-- Step 2 -->
  <circle cx="280" cy="320" r="25" fill="#10b981"/>
  <text x="280" y="327" font-family="Arial, sans-serif" font-size="16" font-weight="bold" fill="white" text-anchor="middle">2</text>
  <text x="280" y="350" font-family="Arial, sans-serif" font-size="12" fill="#374151" text-anchor="middle">Analyze</text>
  
  <!-- Arrow 2 -->
  <path d="M 310 320 L 350 320" stroke="#10b981" stroke-width="2" fill="none"/>
  <polygon points="345,317 355,320 345,323" fill="#10b981"/>
  
  <!-- Step 3 -->
  <circle cx="380" cy="320" r="25" fill="#f59e0b"/>
  <text x="380" y="327" font-family="Arial, sans-serif" font-size="16" font-weight="bold" fill="white" text-anchor="middle">3</text>
  <text x="380" y="350" font-family="Arial, sans-serif" font-size="12" fill="#374151" text-anchor="middle">Create</text>
  
  <!-- Arrow 3 -->
  <path d="M 410 320 L 450 320" stroke="#f59e0b" stroke-width="2" fill="none"/>
  <polygon points="445,317 455,320 445,323" fill="#f59e0b"/>
  
  <!-- Step 4 -->
  <circle cx="480" cy="320" r="25" fill="#8b5cf6"/>
  <text x="480" y="327" font-family="Arial, sans-serif" font-size="16" font-weight="bold" fill="white" text-anchor="middle">4</text>
  <text x="480" y="350" font-family="Arial, sans-serif" font-size="12" fill="#374151" text-anchor="middle">Document</text>
  
  <!-- Arrow 4 -->
  <path d="M 510 320 L 550 320" stroke="#8b5cf6" stroke-width="2" fill="none"/>
  <polygon points="545,317 555,320 545,323" fill="#8b5cf6"/>
  
  <!-- Step 5 -->
  <circle cx="580" cy="320" r="25" fill="#06b6d4"/>
  <text x="580" y="327" font-family="Arial, sans-serif" font-size="16" font-weight="bold" fill="white" text-anchor="middle">5</text>
  <text x="580" y="350" font-family="Arial, sans-serif" font-size="12" fill="#374151" text-anchor="middle">Deploy</text>
  
  <!-- Key Achievement -->
  <rect x="150" y="400" width="500" height="50" rx="25" fill="url(#primaryGradient)"/>
  <text x="400" y="430" font-family="Arial, sans-serif" font-size="16" font-weight="bold" fill="white" text-anchor="middle">🎯 Standardized All L'Oréal Project Deployments</text>
</svg>