<svg width="393" height="90" viewBox="0 0 393 90" fill="none" xmlns="http://www.w3.org/2000/svg">
<path d="M307.393 78.0014L311.39 55.1245H313.592L309.595 78.0014H307.393ZM312.032 47.4557C312.224 46.4217 313.122 45.6462 314.148 45.6462C315.174 45.6462 315.858 46.4433 315.665 47.4557C315.473 48.4897 314.575 49.2652 313.528 49.2652C312.481 49.2652 311.839 48.4682 312.032 47.4557Z" fill="black"/>
<path d="M318.487 72.7023C319.62 75.0072 322.121 76.5151 325.37 76.5151C329.089 76.5151 332.017 74.9426 332.488 72.2068C332.958 69.4495 330.756 68.4802 326.802 67.5108C322.377 66.4122 319 65.0982 319.727 60.8545C320.389 57.0632 324.686 54.6506 329.025 54.6506C332.509 54.6506 335.181 56.18 336.335 58.1403L334.604 59.4543C333.535 57.8387 331.526 56.6539 328.661 56.6539C325.263 56.6539 322.441 58.2264 321.992 60.7683C321.479 63.698 323.702 64.495 327.849 65.5936C332.124 66.7138 335.395 68.1139 334.689 72.2284C334.005 76.1058 329.666 78.5185 325.028 78.5185C321.116 78.5185 317.931 76.8598 316.627 74.0809L318.466 72.7238L318.487 72.7023Z" fill="black"/>
<path d="M341.08 56.9986L341.379 55.146H345.825L347.129 47.7789H349.374L348.07 55.146H356.299L356 56.9986H347.771L345.291 71.0651C344.607 75.0288 346.36 76.5797 348.946 76.5797C350.229 76.5797 351.704 76.2781 353.007 75.6965V77.5491C351.981 78.0015 350.143 78.4969 348.412 78.4969C344.5 78.4969 342.128 76.3428 342.918 71.776L345.526 56.9986H341.059H341.08Z" fill="black"/>
<path d="M358.244 78.0014L362.241 55.1245H364.443L360.446 78.0014H358.244ZM362.883 47.4557C363.075 46.4217 363.973 45.6462 364.999 45.6462C366.025 45.6462 366.709 46.4433 366.516 47.4557C366.324 48.4897 365.426 49.2652 364.379 49.2652C363.332 49.2652 362.69 48.4682 362.883 47.4557Z" fill="black"/>
<path d="M372.544 55.1245H374.746L373.955 59.6051C376.691 56.0077 380.538 54.6506 383.702 54.6506C389.452 54.6506 392.765 57.8387 391.696 63.9995L389.238 78.0015H387.036L389.324 64.8612C390.285 59.3035 387.977 56.6539 382.868 56.6539C378.444 56.6539 373.805 60.4021 372.993 65.0982L370.749 78.0015H368.547L372.544 55.1245Z" fill="black"/>
<path d="M0 51.0747C0 34.7032 10.7516 22.877 25.5003 22.877C40.9972 22.877 51.8557 34.2724 50.5732 53.2503H7.09649C8.05836 64.538 15.9243 72.4437 26.8897 72.4437C34.3068 72.4437 41.104 68.2216 44.2248 61.9315L49.2907 67.0368C44.8874 74.1886 36.0596 78.9708 26.9111 78.9708C11.2005 78.9708 0.021375 67.36 0.021375 51.0962L0 51.0747ZM43.5835 47.068C43.7973 36.6635 36.2733 29.3825 25.821 29.3825C15.3686 29.3825 8.61411 36.5342 7.31024 47.068H43.5622H43.5835Z" fill="black"/>
<path d="M62.8424 50.7516C62.8424 34.3801 73.594 22.5539 87.9152 22.5539C95.8881 22.5539 102.664 26.5606 106.96 32.9584V0H113.736V78.0445H106.96V68.4155C102.664 74.8133 95.8667 78.9277 87.9152 78.9277C73.594 78.9277 62.8424 67.1015 62.8424 50.73V50.7516ZM107.602 50.7516C107.602 38.0637 99.757 29.0594 88.7702 29.0594C77.7835 29.0594 69.832 38.0637 69.832 50.7516C69.832 63.4394 77.6766 72.4438 88.7702 72.4438C99.8638 72.4438 107.602 63.4394 107.602 50.7516Z" fill="black"/>
<path d="M219.307 23.8033H226.297V78.0445H219.307V23.8033ZM226.275 7.06559H219.307V0.0430908H226.275V7.06559Z" fill="black"/>
<path d="M292.666 46.6371V78.0661H285.676V46.8741C285.676 36.1465 279.649 29.4256 271.483 29.4256C260.946 29.4256 255.238 38.1067 255.238 49.0498V78.0876H248.249V23.8032H255.238V33.8415C258.894 26.259 265.242 23.6094 272.125 23.6094C284.501 23.6094 292.687 31.5582 292.687 46.6371H292.666Z" fill="black"/>
<path d="M187.779 78.0446C175.424 78.0446 172.111 68.6094 172.111 54.0474L171.769 31.5582C171.62 30.6319 170.829 29.9426 169.888 29.9426C168.969 29.9426 168.178 30.6104 168.007 31.5367L155.93 71.3452C155.289 75.1795 151.997 78.0661 148.128 78.0661C144.666 78.0661 141.63 75.7181 140.583 72.4007L125.428 23.8033H132.845L147.017 70.979C147.167 71.4744 147.615 71.7976 148.107 71.7976C148.663 71.7976 149.154 71.3883 149.24 70.8282L160.782 31.6444C161.488 27.1637 165.314 23.8248 169.803 23.8248C172.795 23.8248 175.488 25.3543 177.177 27.6377C178.31 29.2102 178.823 31.1489 178.823 33.0876L178.78 54.0474C178.844 62.0608 178.972 71.776 187.736 71.776C196.5 71.776 196.03 61.35 196.03 54.0474V23.8033H202.741C202.741 23.8033 202.741 39.3562 202.741 54.0474C202.741 68.7387 200.091 78.0446 187.758 78.0446H187.779Z" fill="#5530E0"/>
<path d="M234.334 78.0876V71.0436H211.291V78.0876H234.334Z" fill="black"/>
</svg>
